<?xml version="1.0" encoding="UTF-8" standalone="no"?>
<!DOCTYPE svg PUBLIC "-//W3C//DTD SVG 1.1//EN" "http://www.w3.org/Graphics/SVG/1.1/DTD/svg11.dtd">
<svg width="1341.26pt" height="1341.80pt" version="1.1"
    viewBox="0 0 1341.26 1341.80"
    xmlns="http://www.w3.org/2000/svg"
    xmlns:xlink="http://www.w3.org/1999/xlink"
    xml:space="preserve"
    xmlns:serif="http://www.serif.com/"
    style="fill-rule:evenodd;clip-rule:evenodd;stroke-linecap:round;stroke-linejoin:round;stroke-miterlimit:1.5;">
        <path d="M1095.00,1748.40L1095.00,1730.83L1106.95,1730.83L1106.95,1700.75L1095.00,1700.75L1095.00,1671.40L1106.95,1671.40L1106.95,1641.33L1095.00,1641.33L1095.00,1611.97L1106.95,1611.97L1106.95,1581.90L1095.00,1581.90L1095.00,1552.55L1106.95,1552.55L1106.95,1522.47L1095.00,1522.47L1095.00,1493.12L1106.95,1493.12L1106.95,1463.05L1095.00,1463.05L1095.00,1433.69L1106.95,1433.69L1106.95,1403.62L1095.00,1403.62L1095.00,1374.27L1106.95,1374.27L1106.95,1344.19L1095.00,1344.19L1095.00,1314.84L1106.95,1314.84L1106.95,1284.77L1095.00,1284.77L1095.00,1255.41L1106.95,1255.41L1106.95,1225.34L1095.00,1225.34L1095.00,1195.99L1106.95,1195.99L1106.95,1165.91L1095.00,1165.91L1095.00,1148.33L1074.40,1148.33L1074.40,1136.38L1041.30,1136.38L1041.30,1148.33L1008.93,1148.33L1008.93,1136.38L975.83,1136.38L975.83,1148.33L943.46,1148.33L943.46,1136.38L910.36,1136.38L910.36,1148.33L877.99,1148.33L877.99,1136.38L844.89,1136.38L844.89,1148.33L812.52,1148.33L812.52,1136.38L779.42,1136.38L779.42,1148.33L747.05,1148.33L747.05,1136.38L713.95,1136.38L713.95,1148.33L693.35,1148.33L693.35,1165.91L681.39,1165.91L681.39,1195.99L693.35,1195.99L693.35,1225.34L681.39,1225.34L681.39,1255.41L693.35,1255.41L693.35,1284.77L681.39,1284.77L681.39,1314.84L693.35,1314.84L693.35,1344.19L681.39,1344.19L681.39,1374.27L693.35,1374.27L693.35,1403.62L681.39,1403.62L681.39,1433.69L693.35,1433.69L693.35,1463.05L681.39,1463.05L681.39,1493.12L693.35,1493.12L693.35,1522.47L681.39,1522.47L681.39,1552.55L693.35,1552.55L693.35,1581.90L681.39,1581.90L681.39,1611.97L693.35,1611.97L693.35,1641.33L681.39,1641.33L681.39,1671.40L693.35,1671.40L693.35,1700.75L681.39,1700.75L681.39,1730.83L693.35,1730.83L693.35,1748.40L713.95,1748.40L713.95,1760.36L747.05,1760.36L747.05,1748.40L779.42,1748.40L779.42,1760.36L812.52,1760.36L812.52,1748.40L844.89,1748.40L844.89,1760.36L877.99,1760.36L877.99,1748.40L910.36,1748.40L910.36,1760.36L943.46,1760.36L943.46,1748.40L975.83,1748.40L975.83,1760.36L1008.93,1760.36L1008.93,1748.40L1041.30,1748.40L1041.30,1760.36L1074.40,1760.36L1074.40,1748.40Z" style="fill:none;stroke:#000000;stroke-width:0.10px;"/>
        <path d="M1095.00,1107.67L1095.00,1079.45L1106.95,1079.45L1106.95,1050.70L1095.00,1050.70L1095.00,1022.66L1106.95,1022.66L1106.95,993.90L1095.00,993.90L1095.00,965.86L1106.95,965.86L1106.95,937.10L1095.00,937.10L1095.00,908.89L1074.04,908.89L1074.04,920.84L1041.66,920.84L1041.66,908.89L1008.57,908.89L1008.57,920.84L976.19,920.84L976.19,908.89L943.10,908.89L943.10,920.84L910.72,920.84L910.72,908.89L877.63,908.89L877.63,920.84L845.25,920.84L845.25,908.89L812.16,908.89L812.16,920.84L779.78,920.84L779.78,908.89L746.69,908.89L746.69,920.84L714.31,920.84L714.31,908.89L681.39,908.89L681.39,937.10L693.35,937.10L693.35,965.86L681.39,965.86L681.39,993.90L693.35,993.90L693.35,1022.66L681.39,1022.66L681.39,1050.70L693.35,1050.70L693.35,1079.45L681.39,1079.45L681.39,1107.67L714.31,1107.67L714.31,1095.72L746.69,1095.72L746.69,1107.67L779.78,1107.67L779.78,1095.72L812.16,1095.72L812.16,1107.67L845.25,1107.67L845.25,1095.72L877.63,1095.72L877.63,1107.67L910.72,1107.67L910.72,1095.72L943.10,1095.72L943.10,1107.67L976.19,1107.67L976.19,1095.72L1008.57,1095.72L1008.57,1107.67L1041.66,1107.67L1041.66,1095.72L1074.04,1095.72L1074.04,1107.67Z" style="fill:none;stroke:#000000;stroke-width:0.10px;"/>
        <path d="M1747.68,454.98L1729.75,454.98L1729.75,443.03L1700.39,443.03L1700.39,454.98L1670.32,454.98L1670.32,443.03L1640.97,443.03L1640.97,454.98L1610.89,454.98L1610.89,443.03L1581.54,443.03L1581.54,454.98L1551.47,454.98L1551.47,443.03L1522.11,443.03L1522.11,454.98L1492.04,454.98L1492.04,443.03L1462.69,443.03L1462.69,454.98L1432.61,454.98L1432.61,443.03L1403.26,443.03L1403.26,454.98L1373.19,454.98L1373.19,443.03L1343.83,443.03L1343.83,454.98L1313.76,454.98L1313.76,443.03L1284.41,443.03L1284.41,454.98L1254.33,454.98L1254.33,443.03L1224.98,443.03L1224.98,454.98L1194.91,454.98L1194.91,443.03L1165.55,443.03L1165.55,454.98L1135.66,454.98L1135.66,426.41L1147.61,426.41L1147.61,398.37L1135.66,398.37L1135.66,369.61L1147.61,369.61L1147.61,341.57L1135.66,341.57L1135.66,312.81L1147.61,312.81L1147.61,284.78L1135.66,284.78L1135.66,256.20L1165.55,256.20L1165.55,268.15L1194.91,268.15L1194.91,256.20L1224.98,256.20L1224.98,268.15L1254.33,268.15L1254.33,256.20L1284.41,256.20L1284.41,268.15L1313.76,268.15L1313.76,256.20L1343.83,256.20L1343.83,268.15L1373.19,268.15L1373.19,256.20L1403.26,256.20L1403.26,268.15L1432.61,268.15L1432.61,256.20L1462.69,256.20L1462.69,268.15L1492.04,268.15L1492.04,256.20L1522.11,256.20L1522.11,268.15L1551.47,268.15L1551.47,256.20L1581.54,256.20L1581.54,268.15L1610.89,268.15L1610.89,256.20L1640.97,256.20L1640.97,268.15L1670.32,268.15L1670.32,256.20L1700.39,256.20L1700.39,268.15L1729.75,268.15L1729.75,256.20L1747.68,256.20L1747.68,284.42L1759.64,284.42L1759.64,313.17L1747.68,313.17L1747.68,341.21L1759.64,341.21L1759.64,369.97L1747.68,369.97L1747.68,398.01L1759.64,398.01L1759.64,426.77L1747.68,426.77Z" style="fill:none;stroke:#000000;stroke-width:0.10px;"/>
        <path d="M1095.00,868.22L1095.00,850.65L1106.95,850.65L1106.95,820.57L1095.00,820.57L1095.00,791.22L1106.95,791.22L1106.95,761.15L1095.00,761.15L1095.00,731.79L1106.95,731.79L1106.95,701.72L1095.00,701.72L1095.00,672.37L1106.95,672.37L1106.95,642.29L1095.00,642.29L1095.00,612.94L1106.95,612.94L1106.95,582.87L1095.00,582.87L1095.00,553.51L1106.95,553.51L1106.95,523.44L1095.00,523.44L1095.00,494.09L1106.95,494.09L1106.95,464.01L1095.00,464.01L1095.00,434.66L1106.95,434.66L1106.95,404.59L1095.00,404.59L1095.00,375.23L1106.95,375.23L1106.95,345.16L1095.00,345.16L1095.00,315.80L1106.95,315.80L1106.95,285.73L1095.00,285.73L1095.00,268.15L1074.40,268.15L1074.40,256.20L1041.30,256.20L1041.30,268.15L1008.93,268.15L1008.93,256.20L975.83,256.20L975.83,268.15L943.46,268.15L943.46,256.20L910.36,256.20L910.36,268.15L877.99,268.15L877.99,256.20L844.89,256.20L844.89,268.15L812.52,268.15L812.52,256.20L779.42,256.20L779.42,268.15L747.05,268.15L747.05,256.20L713.95,256.20L713.95,268.15L693.35,268.15L693.35,285.73L681.39,285.73L681.39,315.80L693.35,315.80L693.35,345.16L681.39,345.16L681.39,375.23L693.35,375.23L693.35,404.59L681.39,404.59L681.39,434.66L693.35,434.66L693.35,464.01L681.39,464.01L681.39,494.09L693.35,494.09L693.35,523.44L681.39,523.44L681.39,553.51L693.35,553.51L693.35,582.87L681.39,582.87L681.39,612.94L693.35,612.94L693.35,642.29L681.39,642.29L681.39,672.37L693.35,672.37L693.35,701.72L681.39,701.72L681.39,731.79L693.35,731.79L693.35,761.15L681.39,761.15L681.39,791.22L693.35,791.22L693.35,820.57L681.39,820.57L681.39,850.65L693.35,850.65L693.35,868.22L713.95,868.22L713.95,880.18L747.05,880.18L747.05,868.22L779.42,868.22L779.42,880.18L812.52,880.18L812.52,868.22L844.89,868.22L844.89,880.18L877.99,880.18L877.99,868.22L910.36,868.22L910.36,880.18L943.46,880.18L943.46,868.22L975.83,868.22L975.83,880.18L1008.93,880.18L1008.93,868.22L1041.30,868.22L1041.30,880.18L1074.40,880.18L1074.40,868.22Z" style="fill:none;stroke:#000000;stroke-width:0.10px;"/>
        <path d="M640.73,454.98L622.80,454.98L622.80,443.03L593.44,443.03L593.44,454.98L563.37,454.98L563.37,443.03L534.01,443.03L534.01,454.98L503.94,454.98L503.94,443.03L474.59,443.03L474.59,454.98L444.51,454.98L444.51,443.03L415.16,443.03L415.16,454.98L385.09,454.98L385.09,443.03L355.73,443.03L355.73,454.98L325.66,454.98L325.66,443.03L296.31,443.03L296.31,454.98L266.23,454.98L266.23,443.03L236.88,443.03L236.88,454.98L206.81,454.98L206.81,443.03L177.45,443.03L177.45,454.98L147.38,454.98L147.38,443.03L118.03,443.03L118.03,454.98L87.95,454.98L87.95,443.03L58.60,443.03L58.60,454.98L28.71,454.98L28.71,426.41L40.66,426.41L40.66,398.37L28.71,398.37L28.71,369.61L40.66,369.61L40.66,341.57L28.71,341.57L28.71,312.81L40.66,312.81L40.66,284.78L28.71,284.78L28.71,256.20L58.60,256.20L58.60,268.15L87.95,268.15L87.95,256.20L118.03,256.20L118.03,268.15L147.38,268.15L147.38,256.20L177.45,256.20L177.45,268.15L206.81,268.15L206.81,256.20L236.88,256.20L236.88,268.15L266.23,268.15L266.23,256.20L296.31,256.20L296.31,268.15L325.66,268.15L325.66,256.20L355.73,256.20L355.73,268.15L385.09,268.15L385.09,256.20L415.16,256.20L415.16,268.15L444.51,268.15L444.51,256.20L474.59,256.20L474.59,268.15L503.94,268.15L503.94,256.20L534.01,256.20L534.01,268.15L563.37,268.15L563.37,256.20L593.44,256.20L593.44,268.15L622.80,268.15L622.80,256.20L640.73,256.20L640.73,284.42L652.69,284.42L652.69,313.17L640.73,313.17L640.73,341.21L652.69,341.21L652.69,369.97L640.73,369.97L640.73,398.01L652.69,398.01L652.69,426.77L640.73,426.77Z" style="fill:none;stroke:#000000;stroke-width:0.10px;"/>
        <path d="M1095.00,227.49L1095.00,199.27L1106.95,199.27L1106.95,170.52L1095.00,170.52L1095.00,142.48L1106.95,142.48L1106.95,113.72L1095.00,113.72L1095.00,85.68L1106.95,85.68L1106.95,56.92L1095.00,56.92L1095.00,28.71L1074.04,28.71L1074.04,40.66L1041.66,40.66L1041.66,28.71L1008.57,28.71L1008.57,40.66L976.19,40.66L976.19,28.71L943.10,28.71L943.10,40.66L910.72,40.66L910.72,28.71L877.63,28.71L877.63,40.66L845.25,40.66L845.25,28.71L812.16,28.71L812.16,40.66L779.78,40.66L779.78,28.71L746.69,28.71L746.69,40.66L714.31,40.66L714.31,28.71L681.39,28.71L681.39,56.92L693.35,56.92L693.35,85.68L681.39,85.68L681.39,113.72L693.35,113.72L693.35,142.48L681.39,142.48L681.39,170.52L693.35,170.52L693.35,199.27L681.39,199.27L681.39,227.49L714.31,227.49L714.31,215.54L746.69,215.54L746.69,227.49L779.78,227.49L779.78,215.54L812.16,215.54L812.16,227.49L845.25,227.49L845.25,215.54L877.63,215.54L877.63,227.49L910.72,227.49L910.72,215.54L943.10,215.54L943.10,227.49L976.19,227.49L976.19,215.54L1008.57,215.54L1008.57,227.49L1041.66,227.49L1041.66,215.54L1074.04,215.54L1074.04,227.49Z" style="fill:none;stroke:#000000;stroke-width:0.10px;"/>

</svg>
