  0
SECTION
  2
HEADER
  9
$ACADVER
  1
AC1009
  0
ENDSEC
  0
SECTION
  2
TABLES
  0
TABLE
  2
VPORT
 70
1
  0
VPORT
  2
*ACTIVE
 70
0
 10
0.0
 20
0.0
 11
1.0
 21
1.0
 12
344.1869158878504
 22
148.5
 13
0.0
 23
0.0
 14
10.0
 24
10.0
 15
10.0
 25
10.0
 16
0.0
 26
0.0
 36
1.0
 17
-134.1869158878504
 27
0.0
 37
0.0
 40
385.2
 41
1.11214953271028
 42
50.0
 43
0.0
 44
0.0
 50
0.0
 51
0.0
 71
16
 72
1000
 73
1
 74
3
 75
0
 76
0
 77
0
 78
0
  0
ENDTAB
  0
TABLE
  2
LTYPE
 70
1
  0
LTYPE
  2
CONTINUOUS
 70
0
  3
Solid line
 72
65
 73
0
 40
0.0
  0
ENDTAB
  0
TABLE
  2
LAYER
 70
1
  0
LAYER
  2
0
 70
0
 62
7
  6
CONTINUOUS
  0
ENDTAB
  0
TABLE
  2
STYLE
 70
1
  0
STYLE
  2
STANDARD
 70
0
 40
0.0
 41
1.0
 50
0.0
 71
0
 42
2.5
  3
arial.ttf
  4

  0
ENDTAB
  0
TABLE
  2
VIEW
 70
0
  0
ENDTAB
  0
TABLE
  2
UCS
 70
0
  0
ENDTAB
  0
TABLE
  2
APPID
 70
1
  0
APPID
  2
ACAD
 70
0
  0
ENDTAB
  0
TABLE
  2
DIMSTYLE
 70
1
  0
ENDTAB
  0
ENDSEC
  0
SECTION
  2
BLOCKS
  0
ENDSEC
  0
SECTION
  2
ENTITIES
  0
TEXT
  5
4D
  8
0
  6
BYBLOCK
 10
42.51968503937008
 20
99.21259842519686
 30
0
 40
8.0
 41
0.75
  1
Cut Width: 0.1270mm
  0
TEXT
  5
4D
  8
0
  6
BYBLOCK
 10
42.51968503937008
 20
85.03937007874016
 30
0
 40
8.0
 41
0.75
  1
Material Thickness: 4.2180mm
  0
TEXT
  5
4D
  8
0
  6
BYBLOCK
 10
42.51968503937008
 20
70.86614173228347
 30
0
 40
8.0
 41
0.75
  1
W x D x H: 150.13mm x 220.13mm x 70.13mm
  0
TEXT
  5
4D
  8
0
  6
BYBLOCK
 10
42.51968503937008
 20
56.69291338582678
 30
0
 40
8.0
 41
0.75
  1
Produced by box designer v2.4.2 on 09/14/2019 at 03:25:13
  0
TEXT
  5
4D
  8
0
  6
BYBLOCK
 10
42.51968503937008
 20
42.51968503937008
 30
0
 40
8.0
 41
0.75
  1
http://boxdesigner.connectionlab.org
  0
LINE
  5
4D
  8
0
 10
28.70645669291339
 20
28.70645669291339
 30
0.0
 11
1759.6403149606303
 21
28.70645669291339
 31
0.0
  0
LINE
  5
4D
  8
0
 10
1759.6403149606303
 20
28.70645669291339
 30
0.0
 11
1759.6403149606303
 21
1760.3603149606301
 31
0.0
  0
LINE
  5
4D
  8
0
 10
1759.6403149606303
 20
1760.3603149606301
 30
0.0
 11
28.70645669291339
 21
1760.3603149606301
 31
0.0
  0
LINE
  5
4D
  8
0
 10
28.70645669291339
 20
1760.3603149606301
 30
0.0
 11
28.70645669291339
 21
28.70645669291339
 31
0.0
  0
TEXT
  5
4D
  8
0
  6
BYBLOCK
 10
42.51968503937008
 20
1732.3738582677167
 30
0
 40
8.0
 41
0.75
  1
Bounding Box: 610.64mm x 610.89mm
  0
LINE
  5
4D
  8
0
 10
1094.9952755905513
 20
1748.4037795275597
 30
0.0
 11
1094.9952755905513
 21
1730.826884139483
 31
0.0
  0
LINE
  5
4D
  8
0
 10
1094.9952755905513
 20
1730.826884139483
 30
0.0
 11
1106.9518110236222
 21
1730.826884139483
 31
0.0
  0
LINE
  5
4D
  8
0
 10
1106.9518110236222
 20
1730.826884139483
 30
0.0
 11
1106.9518110236222
 21
1700.7534533183355
 31
0.0
  0
LINE
  5
4D
  8
0
 10
1106.9518110236222
 20
1700.7534533183355
 30
0.0
 11
1094.9952755905513
 21
1700.7534533183355
 31
0.0
  0
LINE
  5
4D
  8
0
 10
1094.9952755905513
 20
1700.7534533183355
 30
0.0
 11
1094.9952755905513
 21
1671.4000224971878
 31
0.0
  0
LINE
  5
4D
  8
0
 10
1094.9952755905513
 20
1671.4000224971878
 30
0.0
 11
1106.9518110236222
 21
1671.4000224971878
 31
0.0
  0
LINE
  5
4D
  8
0
 10
1106.9518110236222
 20
1671.4000224971878
 30
0.0
 11
1106.9518110236222
 21
1641.3265916760406
 31
0.0
  0
LINE
  5
4D
  8
0
 10
1106.9518110236222
 20
1641.3265916760406
 30
0.0
 11
1094.9952755905513
 21
1641.3265916760406
 31
0.0
  0
LINE
  5
4D
  8
0
 10
1094.9952755905513
 20
1641.3265916760406
 30
0.0
 11
1094.9952755905513
 21
1611.973160854893
 31
0.0
  0
LINE
  5
4D
  8
0
 10
1094.9952755905513
 20
1611.973160854893
 30
0.0
 11
1106.9518110236222
 21
1611.973160854893
 31
0.0
  0
LINE
  5
4D
  8
0
 10
1106.9518110236222
 20
1611.973160854893
 30
0.0
 11
1106.9518110236222
 21
1581.8997300337455
 31
0.0
  0
LINE
  5
4D
  8
0
 10
1106.9518110236222
 20
1581.8997300337455
 30
0.0
 11
1094.9952755905513
 21
1581.8997300337455
 31
0.0
  0
LINE
  5
4D
  8
0
 10
1094.9952755905513
 20
1581.8997300337455
 30
0.0
 11
1094.9952755905513
 21
1552.5462992125981
 31
0.0
  0
LINE
  5
4D
  8
0
 10
1094.9952755905513
 20
1552.5462992125981
 30
0.0
 11
1106.9518110236222
 21
1552.5462992125981
 31
0.0
  0
LINE
  5
4D
  8
0
 10
1106.9518110236222
 20
1552.5462992125981
 30
0.0
 11
1106.9518110236222
 21
1522.4728683914507
 31
0.0
  0
LINE
  5
4D
  8
0
 10
1106.9518110236222
 20
1522.4728683914507
 30
0.0
 11
1094.9952755905513
 21
1522.4728683914507
 31
0.0
  0
LINE
  5
4D
  8
0
 10
1094.9952755905513
 20
1522.4728683914507
 30
0.0
 11
1094.9952755905513
 21
1493.119437570303
 31
0.0
  0
LINE
  5
4D
  8
0
 10
1094.9952755905513
 20
1493.119437570303
 30
0.0
 11
1106.9518110236222
 21
1493.119437570303
 31
0.0
  0
LINE
  5
4D
  8
0
 10
1106.9518110236222
 20
1493.119437570303
 30
0.0
 11
1106.9518110236222
 21
1463.0460067491558
 31
0.0
  0
LINE
  5
4D
  8
0
 10
1106.9518110236222
 20
1463.0460067491558
 30
0.0
 11
1094.9952755905513
 21
1463.0460067491558
 31
0.0
  0
LINE
  5
4D
  8
0
 10
1094.9952755905513
 20
1463.0460067491558
 30
0.0
 11
1094.9952755905513
 21
1433.6925759280084
 31
0.0
  0
LINE
  5
4D
  8
0
 10
1094.9952755905513
 20
1433.6925759280084
 30
0.0
 11
1106.9518110236222
 21
1433.6925759280084
 31
0.0
  0
LINE
  5
4D
  8
0
 10
1106.9518110236222
 20
1433.6925759280084
 30
0.0
 11
1106.9518110236222
 21
1403.6191451068612
 31
0.0
  0
LINE
  5
4D
  8
0
 10
1106.9518110236222
 20
1403.6191451068612
 30
0.0
 11
1094.9952755905513
 21
1403.6191451068612
 31
0.0
  0
LINE
  5
4D
  8
0
 10
1094.9952755905513
 20
1403.6191451068612
 30
0.0
 11
1094.9952755905513
 21
1374.2657142857138
 31
0.0
  0
LINE
  5
4D
  8
0
 10
1094.9952755905513
 20
1374.2657142857138
 30
0.0
 11
1106.9518110236222
 21
1374.2657142857138
 31
0.0
  0
LINE
  5
4D
  8
0
 10
1106.9518110236222
 20
1374.2657142857138
 30
0.0
 11
1106.9518110236222
 21
1344.1922834645666
 31
0.0
  0
LINE
  5
4D
  8
0
 10
1106.9518110236222
 20
1344.1922834645666
 30
0.0
 11
1094.9952755905513
 21
1344.1922834645666
 31
0.0
  0
LINE
  5
4D
  8
0
 10
1094.9952755905513
 20
1344.1922834645666
 30
0.0
 11
1094.9952755905513
 21
1314.8388526434192
 31
0.0
  0
LINE
  5
4D
  8
0
 10
1094.9952755905513
 20
1314.8388526434192
 30
0.0
 11
1106.9518110236222
 21
1314.8388526434192
 31
0.0
  0
LINE
  5
4D
  8
0
 10
1106.9518110236222
 20
1314.8388526434192
 30
0.0
 11
1106.9518110236222
 21
1284.765421822272
 31
0.0
  0
LINE
  5
4D
  8
0
 10
1106.9518110236222
 20
1284.765421822272
 30
0.0
 11
1094.9952755905513
 21
1284.765421822272
 31
0.0
  0
LINE
  5
4D
  8
0
 10
1094.9952755905513
 20
1284.765421822272
 30
0.0
 11
1094.9952755905513
 21
1255.4119910011245
 31
0.0
  0
LINE
  5
4D
  8
0
 10
1094.9952755905513
 20
1255.4119910011245
 30
0.0
 11
1106.9518110236222
 21
1255.4119910011245
 31
0.0
  0
LINE
  5
4D
  8
0
 10
1106.9518110236222
 20
1255.4119910011245
 30
0.0
 11
1106.9518110236222
 21
1225.3385601799773
 31
0.0
  0
LINE
  5
4D
  8
0
 10
1106.9518110236222
 20
1225.3385601799773
 30
0.0
 11
1094.9952755905513
 21
1225.3385601799773
 31
0.0
  0
LINE
  5
4D
  8
0
 10
1094.9952755905513
 20
1225.3385601799773
 30
0.0
 11
1094.9952755905513
 21
1195.98512935883
 31
0.0
  0
LINE
  5
4D
  8
0
 10
1094.9952755905513
 20
1195.98512935883
 30
0.0
 11
1106.9518110236222
 21
1195.98512935883
 31
0.0
  0
LINE
  5
4D
  8
0
 10
1106.9518110236222
 20
1195.98512935883
 30
0.0
 11
1106.9518110236222
 21
1165.9116985376827
 31
0.0
  0
LINE
  5
4D
  8
0
 10
1106.9518110236222
 20
1165.9116985376827
 30
0.0
 11
1094.9952755905513
 21
1165.9116985376827
 31
0.0
  0
LINE
  5
4D
  8
0
 10
1094.9952755905513
 20
1165.9116985376827
 30
0.0
 11
1094.9952755905513
 21
1148.3348031496064
 31
0.0
  0
LINE
  5
4D
  8
0
 10
1094.9952755905513
 20
1148.3348031496064
 30
0.0
 11
1074.396668685645
 21
1148.3348031496064
 31
0.0
  0
LINE
  5
4D
  8
0
 10
1074.396668685645
 20
1148.3348031496064
 30
0.0
 11
1074.396668685645
 21
1136.3782677165354
 31
0.0
  0
LINE
  5
4D
  8
0
 10
1074.396668685645
 20
1136.3782677165354
 30
0.0
 11
1041.3015263476682
 21
1136.3782677165354
 31
0.0
  0
LINE
  5
4D
  8
0
 10
1041.3015263476682
 20
1136.3782677165354
 30
0.0
 11
1041.3015263476682
 21
1148.3348031496064
 31
0.0
  0
LINE
  5
4D
  8
0
 10
1041.3015263476682
 20
1148.3348031496064
 30
0.0
 11
1008.9263840096911
 21
1148.3348031496064
 31
0.0
  0
LINE
  5
4D
  8
0
 10
1008.9263840096911
 20
1148.3348031496064
 30
0.0
 11
1008.9263840096911
 21
1136.3782677165354
 31
0.0
  0
LINE
  5
4D
  8
0
 10
1008.9263840096911
 20
1136.3782677165354
 30
0.0
 11
975.8312416717142
 21
1136.3782677165354
 31
0.0
  0
LINE
  5
4D
  8
0
 10
975.8312416717142
 20
1136.3782677165354
 30
0.0
 11
975.8312416717142
 21
1148.3348031496064
 31
0.0
  0
LINE
  5
4D
  8
0
 10
975.8312416717142
 20
1148.3348031496064
 30
0.0
 11
943.4560993337371
 21
1148.3348031496064
 31
0.0
  0
LINE
  5
4D
  8
0
 10
943.4560993337371
 20
1148.3348031496064
 30
0.0
 11
943.4560993337371
 21
1136.3782677165354
 31
0.0
  0
LINE
  5
4D
  8
0
 10
943.4560993337371
 20
1136.3782677165354
 30
0.0
 11
910.3609569957603
 21
1136.3782677165354
 31
0.0
  0
LINE
  5
4D
  8
0
 10
910.3609569957603
 20
1136.3782677165354
 30
0.0
 11
910.3609569957603
 21
1148.3348031496064
 31
0.0
  0
LINE
  5
4D
  8
0
 10
910.3609569957603
 20
1148.3348031496064
 30
0.0
 11
877.9858146577831
 21
1148.3348031496064
 31
0.0
  0
LINE
  5
4D
  8
0
 10
877.9858146577831
 20
1148.3348031496064
 30
0.0
 11
877.9858146577831
 21
1136.3782677165354
 31
0.0
  0
LINE
  5
4D
  8
0
 10
877.9858146577831
 20
1136.3782677165354
 30
0.0
 11
844.8906723198063
 21
1136.3782677165354
 31
0.0
  0
LINE
  5
4D
  8
0
 10
844.8906723198063
 20
1136.3782677165354
 30
0.0
 11
844.8906723198063
 21
1148.3348031496064
 31
0.0
  0
LINE
  5
4D
  8
0
 10
844.8906723198063
 20
1148.3348031496064
 30
0.0
 11
812.5155299818291
 21
1148.3348031496064
 31
0.0
  0
LINE
  5
4D
  8
0
 10
812.5155299818291
 20
1148.3348031496064
 30
0.0
 11
812.5155299818291
 21
1136.3782677165354
 31
0.0
  0
LINE
  5
4D
  8
0
 10
812.5155299818291
 20
1136.3782677165354
 30
0.0
 11
779.4203876438523
 21
1136.3782677165354
 31
0.0
  0
LINE
  5
4D
  8
0
 10
779.4203876438523
 20
1136.3782677165354
 30
0.0
 11
779.4203876438523
 21
1148.3348031496064
 31
0.0
  0
LINE
  5
4D
  8
0
 10
779.4203876438523
 20
1148.3348031496064
 30
0.0
 11
747.0452453058751
 21
1148.3348031496064
 31
0.0
  0
LINE
  5
4D
  8
0
 10
747.0452453058751
 20
1148.3348031496064
 30
0.0
 11
747.0452453058751
 21
1136.3782677165354
 31
0.0
  0
LINE
  5
4D
  8
0
 10
747.0452453058751
 20
1136.3782677165354
 30
0.0
 11
713.9501029678983
 21
1136.3782677165354
 31
0.0
  0
LINE
  5
4D
  8
0
 10
713.9501029678983
 20
1136.3782677165354
 30
0.0
 11
713.9501029678983
 21
1148.3348031496064
 31
0.0
  0
LINE
  5
4D
  8
0
 10
713.9501029678983
 20
1148.3348031496064
 30
0.0
 11
693.3514960629922
 21
1148.3348031496064
 31
0.0
  0
LINE
  5
4D
  8
0
 10
693.3514960629922
 20
1148.3348031496064
 30
0.0
 11
693.3514960629922
 21
1165.9116985376827
 31
0.0
  0
LINE
  5
4D
  8
0
 10
693.3514960629922
 20
1165.9116985376827
 30
0.0
 11
681.3949606299213
 21
1165.9116985376827
 31
0.0
  0
LINE
  5
4D
  8
0
 10
681.3949606299213
 20
1165.9116985376827
 30
0.0
 11
681.3949606299213
 21
1195.98512935883
 31
0.0
  0
LINE
  5
4D
  8
0
 10
681.3949606299213
 20
1195.98512935883
 30
0.0
 11
693.3514960629922
 21
1195.98512935883
 31
0.0
  0
LINE
  5
4D
  8
0
 10
693.3514960629922
 20
1195.98512935883
 30
0.0
 11
693.3514960629922
 21
1225.3385601799773
 31
0.0
  0
LINE
  5
4D
  8
0
 10
693.3514960629922
 20
1225.3385601799773
 30
0.0
 11
681.3949606299213
 21
1225.3385601799773
 31
0.0
  0
LINE
  5
4D
  8
0
 10
681.3949606299213
 20
1225.3385601799773
 30
0.0
 11
681.3949606299213
 21
1255.4119910011245
 31
0.0
  0
LINE
  5
4D
  8
0
 10
681.3949606299213
 20
1255.4119910011245
 30
0.0
 11
693.3514960629922
 21
1255.4119910011245
 31
0.0
  0
LINE
  5
4D
  8
0
 10
693.3514960629922
 20
1255.4119910011245
 30
0.0
 11
693.3514960629922
 21
1284.765421822272
 31
0.0
  0
LINE
  5
4D
  8
0
 10
693.3514960629922
 20
1284.765421822272
 30
0.0
 11
681.3949606299213
 21
1284.765421822272
 31
0.0
  0
LINE
  5
4D
  8
0
 10
681.3949606299213
 20
1284.765421822272
 30
0.0
 11
681.3949606299213
 21
1314.8388526434192
 31
0.0
  0
LINE
  5
4D
  8
0
 10
681.3949606299213
 20
1314.8388526434192
 30
0.0
 11
693.3514960629922
 21
1314.8388526434192
 31
0.0
  0
LINE
  5
4D
  8
0
 10
693.3514960629922
 20
1314.8388526434192
 30
0.0
 11
693.3514960629922
 21
1344.1922834645666
 31
0.0
  0
LINE
  5
4D
  8
0
 10
693.3514960629922
 20
1344.1922834645666
 30
0.0
 11
681.3949606299213
 21
1344.1922834645666
 31
0.0
  0
LINE
  5
4D
  8
0
 10
681.3949606299213
 20
1344.1922834645666
 30
0.0
 11
681.3949606299213
 21
1374.2657142857138
 31
0.0
  0
LINE
  5
4D
  8
0
 10
681.3949606299213
 20
1374.2657142857138
 30
0.0
 11
693.3514960629922
 21
1374.2657142857138
 31
0.0
  0
LINE
  5
4D
  8
0
 10
693.3514960629922
 20
1374.2657142857138
 30
0.0
 11
693.3514960629922
 21
1403.6191451068612
 31
0.0
  0
LINE
  5
4D
  8
0
 10
693.3514960629922
 20
1403.6191451068612
 30
0.0
 11
681.3949606299213
 21
1403.6191451068612
 31
0.0
  0
LINE
  5
4D
  8
0
 10
681.3949606299213
 20
1403.6191451068612
 30
0.0
 11
681.3949606299213
 21
1433.6925759280084
 31
0.0
  0
LINE
  5
4D
  8
0
 10
681.3949606299213
 20
1433.6925759280084
 30
0.0
 11
693.3514960629922
 21
1433.6925759280084
 31
0.0
  0
LINE
  5
4D
  8
0
 10
693.3514960629922
 20
1433.6925759280084
 30
0.0
 11
693.3514960629922
 21
1463.0460067491558
 31
0.0
  0
LINE
  5
4D
  8
0
 10
693.3514960629922
 20
1463.0460067491558
 30
0.0
 11
681.3949606299213
 21
1463.0460067491558
 31
0.0
  0
LINE
  5
4D
  8
0
 10
681.3949606299213
 20
1463.0460067491558
 30
0.0
 11
681.3949606299213
 21
1493.119437570303
 31
0.0
  0
LINE
  5
4D
  8
0
 10
681.3949606299213
 20
1493.119437570303
 30
0.0
 11
693.3514960629922
 21
1493.119437570303
 31
0.0
  0
LINE
  5
4D
  8
0
 10
693.3514960629922
 20
1493.119437570303
 30
0.0
 11
693.3514960629922
 21
1522.4728683914507
 31
0.0
  0
LINE
  5
4D
  8
0
 10
693.3514960629922
 20
1522.4728683914507
 30
0.0
 11
681.3949606299213
 21
1522.4728683914507
 31
0.0
  0
LINE
  5
4D
  8
0
 10
681.3949606299213
 20
1522.4728683914507
 30
0.0
 11
681.3949606299213
 21
1552.5462992125981
 31
0.0
  0
LINE
  5
4D
  8
0
 10
681.3949606299213
 20
1552.5462992125981
 30
0.0
 11
693.3514960629922
 21
1552.5462992125981
 31
0.0
  0
LINE
  5
4D
  8
0
 10
693.3514960629922
 20
1552.5462992125981
 30
0.0
 11
693.3514960629922
 21
1581.8997300337455
 31
0.0
  0
LINE
  5
4D
  8
0
 10
693.3514960629922
 20
1581.8997300337455
 30
0.0
 11
681.3949606299213
 21
1581.8997300337455
 31
0.0
  0
LINE
  5
4D
  8
0
 10
681.3949606299213
 20
1581.8997300337455
 30
0.0
 11
681.3949606299213
 21
1611.973160854893
 31
0.0
  0
LINE
  5
4D
  8
0
 10
681.3949606299213
 20
1611.973160854893
 30
0.0
 11
693.3514960629922
 21
1611.973160854893
 31
0.0
  0
LINE
  5
4D
  8
0
 10
693.3514960629922
 20
1611.973160854893
 30
0.0
 11
693.3514960629922
 21
1641.3265916760406
 31
0.0
  0
LINE
  5
4D
  8
0
 10
693.3514960629922
 20
1641.3265916760406
 30
0.0
 11
681.3949606299213
 21
1641.3265916760406
 31
0.0
  0
LINE
  5
4D
  8
0
 10
681.3949606299213
 20
1641.3265916760406
 30
0.0
 11
681.3949606299213
 21
1671.4000224971878
 31
0.0
  0
LINE
  5
4D
  8
0
 10
681.3949606299213
 20
1671.4000224971878
 30
0.0
 11
693.3514960629922
 21
1671.4000224971878
 31
0.0
  0
LINE
  5
4D
  8
0
 10
693.3514960629922
 20
1671.4000224971878
 30
0.0
 11
693.3514960629922
 21
1700.7534533183355
 31
0.0
  0
LINE
  5
4D
  8
0
 10
693.3514960629922
 20
1700.7534533183355
 30
0.0
 11
681.3949606299213
 21
1700.7534533183355
 31
0.0
  0
LINE
  5
4D
  8
0
 10
681.3949606299213
 20
1700.7534533183355
 30
0.0
 11
681.3949606299213
 21
1730.826884139483
 31
0.0
  0
LINE
  5
4D
  8
0
 10
681.3949606299213
 20
1730.826884139483
 30
0.0
 11
693.3514960629922
 21
1730.826884139483
 31
0.0
  0
LINE
  5
4D
  8
0
 10
693.3514960629922
 20
1730.826884139483
 30
0.0
 11
693.3514960629922
 21
1748.4037795275592
 31
0.0
  0
LINE
  5
4D
  8
0
 10
693.3514960629922
 20
1748.4037795275592
 30
0.0
 11
713.9501029678983
 21
1748.4037795275592
 31
0.0
  0
LINE
  5
4D
  8
0
 10
713.9501029678983
 20
1748.4037795275592
 30
0.0
 11
713.9501029678983
 21
1760.36031496063
 31
0.0
  0
LINE
  5
4D
  8
0
 10
713.9501029678983
 20
1760.36031496063
 30
0.0
 11
747.0452453058751
 21
1760.36031496063
 31
0.0
  0
LINE
  5
4D
  8
0
 10
747.0452453058751
 20
1760.36031496063
 30
0.0
 11
747.0452453058751
 21
1748.4037795275592
 31
0.0
  0
LINE
  5
4D
  8
0
 10
747.0452453058751
 20
1748.4037795275592
 30
0.0
 11
779.4203876438523
 21
1748.4037795275592
 31
0.0
  0
LINE
  5
4D
  8
0
 10
779.4203876438523
 20
1748.4037795275592
 30
0.0
 11
779.4203876438523
 21
1760.36031496063
 31
0.0
  0
LINE
  5
4D
  8
0
 10
779.4203876438523
 20
1760.36031496063
 30
0.0
 11
812.5155299818291
 21
1760.36031496063
 31
0.0
  0
LINE
  5
4D
  8
0
 10
812.5155299818291
 20
1760.36031496063
 30
0.0
 11
812.5155299818291
 21
1748.4037795275592
 31
0.0
  0
LINE
  5
4D
  8
0
 10
812.5155299818291
 20
1748.4037795275592
 30
0.0
 11
844.8906723198063
 21
1748.4037795275592
 31
0.0
  0
LINE
  5
4D
  8
0
 10
844.8906723198063
 20
1748.4037795275592
 30
0.0
 11
844.8906723198063
 21
1760.36031496063
 31
0.0
  0
LINE
  5
4D
  8
0
 10
844.8906723198063
 20
1760.36031496063
 30
0.0
 11
877.9858146577831
 21
1760.36031496063
 31
0.0
  0
LINE
  5
4D
  8
0
 10
877.9858146577831
 20
1760.36031496063
 30
0.0
 11
877.9858146577831
 21
1748.4037795275592
 31
0.0
  0
LINE
  5
4D
  8
0
 10
877.9858146577831
 20
1748.4037795275592
 30
0.0
 11
910.3609569957603
 21
1748.4037795275592
 31
0.0
  0
LINE
  5
4D
  8
0
 10
910.3609569957603
 20
1748.4037795275592
 30
0.0
 11
910.3609569957603
 21
1760.36031496063
 31
0.0
  0
LINE
  5
4D
  8
0
 10
910.3609569957603
 20
1760.36031496063
 30
0.0
 11
943.4560993337371
 21
1760.36031496063
 31
0.0
  0
LINE
  5
4D
  8
0
 10
943.4560993337371
 20
1760.36031496063
 30
0.0
 11
943.4560993337371
 21
1748.4037795275592
 31
0.0
  0
LINE
  5
4D
  8
0
 10
943.4560993337371
 20
1748.4037795275592
 30
0.0
 11
975.8312416717142
 21
1748.4037795275592
 31
0.0
  0
LINE
  5
4D
  8
0
 10
975.8312416717142
 20
1748.4037795275592
 30
0.0
 11
975.8312416717142
 21
1760.36031496063
 31
0.0
  0
LINE
  5
4D
  8
0
 10
975.8312416717142
 20
1760.36031496063
 30
0.0
 11
1008.9263840096911
 21
1760.36031496063
 31
0.0
  0
LINE
  5
4D
  8
0
 10
1008.9263840096911
 20
1760.36031496063
 30
0.0
 11
1008.9263840096911
 21
1748.4037795275592
 31
0.0
  0
LINE
  5
4D
  8
0
 10
1008.9263840096911
 20
1748.4037795275592
 30
0.0
 11
1041.3015263476682
 21
1748.4037795275592
 31
0.0
  0
LINE
  5
4D
  8
0
 10
1041.3015263476682
 20
1748.4037795275592
 30
0.0
 11
1041.3015263476682
 21
1760.36031496063
 31
0.0
  0
LINE
  5
4D
  8
0
 10
1041.3015263476682
 20
1760.36031496063
 30
0.0
 11
1074.396668685645
 21
1760.36031496063
 31
0.0
  0
LINE
  5
4D
  8
0
 10
1074.396668685645
 20
1760.36031496063
 30
0.0
 11
1074.396668685645
 21
1748.4037795275592
 31
0.0
  0
LINE
  5
4D
  8
0
 10
1074.396668685645
 20
1748.4037795275592
 30
0.0
 11
1094.9952755905513
 21
1748.4037795275592
 31
0.0
  0
LINE
  5
4D
  8
0
 10
1094.9952755905513
 20
1107.6718110236218
 30
0.0
 11
1094.9952755905513
 21
1079.4539257592796
 31
0.0
  0
LINE
  5
4D
  8
0
 10
1094.9952755905513
 20
1079.4539257592796
 30
0.0
 11
1106.9518110236222
 21
1079.4539257592796
 31
0.0
  0
LINE
  5
4D
  8
0
 10
1106.9518110236222
 20
1079.4539257592796
 30
0.0
 11
1106.9518110236222
 21
1050.696040494938
 31
0.0
  0
LINE
  5
4D
  8
0
 10
1106.9518110236222
 20
1050.696040494938
 30
0.0
 11
1094.9952755905513
 21
1050.696040494938
 31
0.0
  0
LINE
  5
4D
  8
0
 10
1094.9952755905513
 20
1050.696040494938
 30
0.0
 11
1094.9952755905513
 21
1022.658155230596
 31
0.0
  0
LINE
  5
4D
  8
0
 10
1094.9952755905513
 20
1022.658155230596
 30
0.0
 11
1106.9518110236222
 21
1022.658155230596
 31
0.0
  0
LINE
  5
4D
  8
0
 10
1106.9518110236222
 20
1022.658155230596
 30
0.0
 11
1106.9518110236222
 21
993.9002699662542
 31
0.0
  0
LINE
  5
4D
  8
0
 10
1106.9518110236222
 20
993.9002699662542
 30
0.0
 11
1094.9952755905513
 21
993.9002699662542
 31
0.0
  0
LINE
  5
4D
  8
0
 10
1094.9952755905513
 20
993.9002699662542
 30
0.0
 11
1094.9952755905513
 21
965.8623847019121
 31
0.0
  0
LINE
  5
4D
  8
0
 10
1094.9952755905513
 20
965.8623847019121
 30
0.0
 11
1106.9518110236222
 21
965.8623847019121
 31
0.0
  0
LINE
  5
4D
  8
0
 10
1106.9518110236222
 20
965.8623847019121
 30
0.0
 11
1106.9518110236222
 21
937.1044994375703
 31
0.0
  0
LINE
  5
4D
  8
0
 10
1106.9518110236222
 20
937.1044994375703
 30
0.0
 11
1094.9952755905513
 21
937.1044994375703
 31
0.0
  0
LINE
  5
4D
  8
0
 10
1094.9952755905513
 20
937.1044994375703
 30
0.0
 11
1094.9952755905513
 21
908.8866141732284
 31
0.0
  0
LINE
  5
4D
  8
0
 10
1094.9952755905513
 20
908.8866141732284
 30
0.0
 11
1074.0366686856453
 21
908.8866141732284
 31
0.0
  0
LINE
  5
4D
  8
0
 10
1074.0366686856453
 20
908.8866141732284
 30
0.0
 11
1074.0366686856453
 21
920.8431496062993
 31
0.0
  0
LINE
  5
4D
  8
0
 10
1074.0366686856453
 20
920.8431496062993
 30
0.0
 11
1041.661526347668
 21
920.8431496062993
 31
0.0
  0
LINE
  5
4D
  8
0
 10
1041.661526347668
 20
920.8431496062993
 30
0.0
 11
1041.661526347668
 21
908.8866141732284
 31
0.0
  0
LINE
  5
4D
  8
0
 10
1041.661526347668
 20
908.8866141732284
 30
0.0
 11
1008.5663840096912
 21
908.8866141732284
 31
0.0
  0
LINE
  5
4D
  8
0
 10
1008.5663840096912
 20
908.8866141732284
 30
0.0
 11
1008.5663840096912
 21
920.8431496062993
 31
0.0
  0
LINE
  5
4D
  8
0
 10
1008.5663840096912
 20
920.8431496062993
 30
0.0
 11
976.1912416717141
 21
920.8431496062993
 31
0.0
  0
LINE
  5
4D
  8
0
 10
976.1912416717141
 20
920.8431496062993
 30
0.0
 11
976.1912416717141
 21
908.8866141732284
 31
0.0
  0
LINE
  5
4D
  8
0
 10
976.1912416717141
 20
908.8866141732284
 30
0.0
 11
943.0960993337372
 21
908.8866141732284
 31
0.0
  0
LINE
  5
4D
  8
0
 10
943.0960993337372
 20
908.8866141732284
 30
0.0
 11
943.0960993337372
 21
920.8431496062993
 31
0.0
  0
LINE
  5
4D
  8
0
 10
943.0960993337372
 20
920.8431496062993
 30
0.0
 11
910.7209569957602
 21
920.8431496062993
 31
0.0
  0
LINE
  5
4D
  8
0
 10
910.7209569957602
 20
920.8431496062993
 30
0.0
 11
910.7209569957602
 21
908.8866141732284
 31
0.0
  0
LINE
  5
4D
  8
0
 10
910.7209569957602
 20
908.8866141732284
 30
0.0
 11
877.6258146577833
 21
908.8866141732284
 31
0.0
  0
LINE
  5
4D
  8
0
 10
877.6258146577833
 20
908.8866141732284
 30
0.0
 11
877.6258146577833
 21
920.8431496062993
 31
0.0
  0
LINE
  5
4D
  8
0
 10
877.6258146577833
 20
920.8431496062993
 30
0.0
 11
845.2506723198061
 21
920.8431496062993
 31
0.0
  0
LINE
  5
4D
  8
0
 10
845.2506723198061
 20
920.8431496062993
 30
0.0
 11
845.2506723198061
 21
908.8866141732284
 31
0.0
  0
LINE
  5
4D
  8
0
 10
845.2506723198061
 20
908.8866141732284
 30
0.0
 11
812.1555299818293
 21
908.8866141732284
 31
0.0
  0
LINE
  5
4D
  8
0
 10
812.1555299818293
 20
908.8866141732284
 30
0.0
 11
812.1555299818293
 21
920.8431496062993
 31
0.0
  0
LINE
  5
4D
  8
0
 10
812.1555299818293
 20
920.8431496062993
 30
0.0
 11
779.7803876438521
 21
920.8431496062993
 31
0.0
  0
LINE
  5
4D
  8
0
 10
779.7803876438521
 20
920.8431496062993
 30
0.0
 11
779.7803876438521
 21
908.8866141732284
 31
0.0
  0
LINE
  5
4D
  8
0
 10
779.7803876438521
 20
908.8866141732284
 30
0.0
 11
746.6852453058752
 21
908.8866141732284
 31
0.0
  0
LINE
  5
4D
  8
0
 10
746.6852453058752
 20
908.8866141732284
 30
0.0
 11
746.6852453058752
 21
920.8431496062993
 31
0.0
  0
LINE
  5
4D
  8
0
 10
746.6852453058752
 20
920.8431496062993
 30
0.0
 11
714.3101029678984
 21
920.8431496062993
 31
0.0
  0
LINE
  5
4D
  8
0
 10
714.3101029678984
 20
920.8431496062993
 30
0.0
 11
714.3101029678984
 21
908.8866141732284
 31
0.0
  0
LINE
  5
4D
  8
0
 10
714.3101029678984
 20
908.8866141732284
 30
0.0
 11
681.3949606299213
 21
908.8866141732284
 31
0.0
  0
LINE
  5
4D
  8
0
 10
681.3949606299213
 20
908.8866141732284
 30
0.0
 11
681.3949606299213
 21
937.1044994375703
 31
0.0
  0
LINE
  5
4D
  8
0
 10
681.3949606299213
 20
937.1044994375703
 30
0.0
 11
693.3514960629922
 21
937.1044994375703
 31
0.0
  0
LINE
  5
4D
  8
0
 10
693.3514960629922
 20
937.1044994375703
 30
0.0
 11
693.3514960629922
 21
965.8623847019121
 31
0.0
  0
LINE
  5
4D
  8
0
 10
693.3514960629922
 20
965.8623847019121
 30
0.0
 11
681.3949606299213
 21
965.8623847019121
 31
0.0
  0
LINE
  5
4D
  8
0
 10
681.3949606299213
 20
965.8623847019121
 30
0.0
 11
681.3949606299213
 21
993.9002699662542
 31
0.0
  0
LINE
  5
4D
  8
0
 10
681.3949606299213
 20
993.9002699662542
 30
0.0
 11
693.3514960629922
 21
993.9002699662542
 31
0.0
  0
LINE
  5
4D
  8
0
 10
693.3514960629922
 20
993.9002699662542
 30
0.0
 11
693.3514960629922
 21
1022.658155230596
 31
0.0
  0
LINE
  5
4D
  8
0
 10
693.3514960629922
 20
1022.658155230596
 30
0.0
 11
681.3949606299213
 21
1022.658155230596
 31
0.0
  0
LINE
  5
4D
  8
0
 10
681.3949606299213
 20
1022.658155230596
 30
0.0
 11
681.3949606299213
 21
1050.696040494938
 31
0.0
  0
LINE
  5
4D
  8
0
 10
681.3949606299213
 20
1050.696040494938
 30
0.0
 11
693.3514960629922
 21
1050.696040494938
 31
0.0
  0
LINE
  5
4D
  8
0
 10
693.3514960629922
 20
1050.696040494938
 30
0.0
 11
693.3514960629922
 21
1079.4539257592796
 31
0.0
  0
LINE
  5
4D
  8
0
 10
693.3514960629922
 20
1079.4539257592796
 30
0.0
 11
681.3949606299213
 21
1079.4539257592796
 31
0.0
  0
LINE
  5
4D
  8
0
 10
681.3949606299213
 20
1079.4539257592796
 30
0.0
 11
681.3949606299213
 21
1107.6718110236222
 31
0.0
  0
LINE
  5
4D
  8
0
 10
681.3949606299213
 20
1107.6718110236222
 30
0.0
 11
714.3101029678984
 21
1107.6718110236222
 31
0.0
  0
LINE
  5
4D
  8
0
 10
714.3101029678984
 20
1107.6718110236222
 30
0.0
 11
714.3101029678984
 21
1095.7152755905513
 31
0.0
  0
LINE
  5
4D
  8
0
 10
714.3101029678984
 20
1095.7152755905513
 30
0.0
 11
746.6852453058752
 21
1095.7152755905513
 31
0.0
  0
LINE
  5
4D
  8
0
 10
746.6852453058752
 20
1095.7152755905513
 30
0.0
 11
746.6852453058752
 21
1107.6718110236222
 31
0.0
  0
LINE
  5
4D
  8
0
 10
746.6852453058752
 20
1107.6718110236222
 30
0.0
 11
779.7803876438521
 21
1107.6718110236222
 31
0.0
  0
LINE
  5
4D
  8
0
 10
779.7803876438521
 20
1107.6718110236222
 30
0.0
 11
779.7803876438521
 21
1095.7152755905513
 31
0.0
  0
LINE
  5
4D
  8
0
 10
779.7803876438521
 20
1095.7152755905513
 30
0.0
 11
812.1555299818293
 21
1095.7152755905513
 31
0.0
  0
LINE
  5
4D
  8
0
 10
812.1555299818293
 20
1095.7152755905513
 30
0.0
 11
812.1555299818293
 21
1107.6718110236222
 31
0.0
  0
LINE
  5
4D
  8
0
 10
812.1555299818293
 20
1107.6718110236222
 30
0.0
 11
845.2506723198061
 21
1107.6718110236222
 31
0.0
  0
LINE
  5
4D
  8
0
 10
845.2506723198061
 20
1107.6718110236222
 30
0.0
 11
845.2506723198061
 21
1095.7152755905513
 31
0.0
  0
LINE
  5
4D
  8
0
 10
845.2506723198061
 20
1095.7152755905513
 30
0.0
 11
877.6258146577833
 21
1095.7152755905513
 31
0.0
  0
LINE
  5
4D
  8
0
 10
877.6258146577833
 20
1095.7152755905513
 30
0.0
 11
877.6258146577833
 21
1107.6718110236222
 31
0.0
  0
LINE
  5
4D
  8
0
 10
877.6258146577833
 20
1107.6718110236222
 30
0.0
 11
910.7209569957602
 21
1107.6718110236222
 31
0.0
  0
LINE
  5
4D
  8
0
 10
910.7209569957602
 20
1107.6718110236222
 30
0.0
 11
910.7209569957602
 21
1095.7152755905513
 31
0.0
  0
LINE
  5
4D
  8
0
 10
910.7209569957602
 20
1095.7152755905513
 30
0.0
 11
943.0960993337372
 21
1095.7152755905513
 31
0.0
  0
LINE
  5
4D
  8
0
 10
943.0960993337372
 20
1095.7152755905513
 30
0.0
 11
943.0960993337372
 21
1107.6718110236222
 31
0.0
  0
LINE
  5
4D
  8
0
 10
943.0960993337372
 20
1107.6718110236222
 30
0.0
 11
976.1912416717141
 21
1107.6718110236222
 31
0.0
  0
LINE
  5
4D
  8
0
 10
976.1912416717141
 20
1107.6718110236222
 30
0.0
 11
976.1912416717141
 21
1095.7152755905513
 31
0.0
  0
LINE
  5
4D
  8
0
 10
976.1912416717141
 20
1095.7152755905513
 30
0.0
 11
1008.5663840096912
 21
1095.7152755905513
 31
0.0
  0
LINE
  5
4D
  8
0
 10
1008.5663840096912
 20
1095.7152755905513
 30
0.0
 11
1008.5663840096912
 21
1107.6718110236222
 31
0.0
  0
LINE
  5
4D
  8
0
 10
1008.5663840096912
 20
1107.6718110236222
 30
0.0
 11
1041.661526347668
 21
1107.6718110236222
 31
0.0
  0
LINE
  5
4D
  8
0
 10
1041.661526347668
 20
1107.6718110236222
 30
0.0
 11
1041.661526347668
 21
1095.7152755905513
 31
0.0
  0
LINE
  5
4D
  8
0
 10
1041.661526347668
 20
1095.7152755905513
 30
0.0
 11
1074.0366686856453
 21
1095.7152755905513
 31
0.0
  0
LINE
  5
4D
  8
0
 10
1074.0366686856453
 20
1095.7152755905513
 30
0.0
 11
1074.0366686856453
 21
1107.6718110236222
 31
0.0
  0
LINE
  5
4D
  8
0
 10
1074.0366686856453
 20
1107.6718110236222
 30
0.0
 11
1094.9952755905513
 21
1107.6718110236222
 31
0.0
  0
LINE
  5
4D
  8
0
 10
1747.6837795275599
 20
454.98330708661416
 30
0.0
 11
1729.7468841394832
 21
454.98330708661416
 31
0.0
  0
LINE
  5
4D
  8
0
 10
1729.7468841394832
 20
454.98330708661416
 30
0.0
 11
1729.7468841394832
 21
443.02677165354334
 31
0.0
  0
LINE
  5
4D
  8
0
 10
1729.7468841394832
 20
443.02677165354334
 30
0.0
 11
1700.3934533183356
 21
443.02677165354334
 31
0.0
  0
LINE
  5
4D
  8
0
 10
1700.3934533183356
 20
443.02677165354334
 30
0.0
 11
1700.3934533183356
 21
454.98330708661416
 31
0.0
  0
LINE
  5
4D
  8
0
 10
1700.3934533183356
 20
454.98330708661416
 30
0.0
 11
1670.3200224971883
 21
454.98330708661416
 31
0.0
  0
LINE
  5
4D
  8
0
 10
1670.3200224971883
 20
454.98330708661416
 30
0.0
 11
1670.3200224971883
 21
443.02677165354334
 31
0.0
  0
LINE
  5
4D
  8
0
 10
1670.3200224971883
 20
443.02677165354334
 30
0.0
 11
1640.9665916760407
 21
443.02677165354334
 31
0.0
  0
LINE
  5
4D
  8
0
 10
1640.9665916760407
 20
443.02677165354334
 30
0.0
 11
1640.9665916760407
 21
454.98330708661416
 31
0.0
  0
LINE
  5
4D
  8
0
 10
1640.9665916760407
 20
454.98330708661416
 30
0.0
 11
1610.8931608548933
 21
454.98330708661416
 31
0.0
  0
LINE
  5
4D
  8
0
 10
1610.8931608548933
 20
454.98330708661416
 30
0.0
 11
1610.8931608548933
 21
443.02677165354334
 31
0.0
  0
LINE
  5
4D
  8
0
 10
1610.8931608548933
 20
443.02677165354334
 30
0.0
 11
1581.5397300337459
 21
443.02677165354334
 31
0.0
  0
LINE
  5
4D
  8
0
 10
1581.5397300337459
 20
443.02677165354334
 30
0.0
 11
1581.5397300337459
 21
454.98330708661416
 31
0.0
  0
LINE
  5
4D
  8
0
 10
1581.5397300337459
 20
454.98330708661416
 30
0.0
 11
1551.4662992125984
 21
454.98330708661416
 31
0.0
  0
LINE
  5
4D
  8
0
 10
1551.4662992125984
 20
454.98330708661416
 30
0.0
 11
1551.4662992125984
 21
443.02677165354334
 31
0.0
  0
LINE
  5
4D
  8
0
 10
1551.4662992125984
 20
443.02677165354334
 30
0.0
 11
1522.1128683914508
 21
443.02677165354334
 31
0.0
  0
LINE
  5
4D
  8
0
 10
1522.1128683914508
 20
443.02677165354334
 30
0.0
 11
1522.1128683914508
 21
454.98330708661416
 31
0.0
  0
LINE
  5
4D
  8
0
 10
1522.1128683914508
 20
454.98330708661416
 30
0.0
 11
1492.0394375703036
 21
454.98330708661416
 31
0.0
  0
LINE
  5
4D
  8
0
 10
1492.0394375703036
 20
454.98330708661416
 30
0.0
 11
1492.0394375703036
 21
443.02677165354334
 31
0.0
  0
LINE
  5
4D
  8
0
 10
1492.0394375703036
 20
443.02677165354334
 30
0.0
 11
1462.686006749156
 21
443.02677165354334
 31
0.0
  0
LINE
  5
4D
  8
0
 10
1462.686006749156
 20
443.02677165354334
 30
0.0
 11
1462.686006749156
 21
454.98330708661416
 31
0.0
  0
LINE
  5
4D
  8
0
 10
1462.686006749156
 20
454.98330708661416
 30
0.0
 11
1432.6125759280085
 21
454.98330708661416
 31
0.0
  0
LINE
  5
4D
  8
0
 10
1432.6125759280085
 20
454.98330708661416
 30
0.0
 11
1432.6125759280085
 21
443.02677165354334
 31
0.0
  0
LINE
  5
4D
  8
0
 10
1432.6125759280085
 20
443.02677165354334
 30
0.0
 11
1403.259145106861
 21
443.02677165354334
 31
0.0
  0
LINE
  5
4D
  8
0
 10
1403.259145106861
 20
443.02677165354334
 30
0.0
 11
1403.259145106861
 21
454.98330708661416
 31
0.0
  0
LINE
  5
4D
  8
0
 10
1403.259145106861
 20
454.98330708661416
 30
0.0
 11
1373.185714285714
 21
454.98330708661416
 31
0.0
  0
LINE
  5
4D
  8
0
 10
1373.185714285714
 20
454.98330708661416
 30
0.0
 11
1373.185714285714
 21
443.02677165354334
 31
0.0
  0
LINE
  5
4D
  8
0
 10
1373.185714285714
 20
443.02677165354334
 30
0.0
 11
1343.8322834645664
 21
443.02677165354334
 31
0.0
  0
LINE
  5
4D
  8
0
 10
1343.8322834645664
 20
443.02677165354334
 30
0.0
 11
1343.8322834645664
 21
454.98330708661416
 31
0.0
  0
LINE
  5
4D
  8
0
 10
1343.8322834645664
 20
454.98330708661416
 30
0.0
 11
1313.7588526434195
 21
454.98330708661416
 31
0.0
  0
LINE
  5
4D
  8
0
 10
1313.7588526434195
 20
454.98330708661416
 30
0.0
 11
1313.7588526434195
 21
443.02677165354334
 31
0.0
  0
LINE
  5
4D
  8
0
 10
1313.7588526434195
 20
443.02677165354334
 30
0.0
 11
1284.405421822272
 21
443.02677165354334
 31
0.0
  0
LINE
  5
4D
  8
0
 10
1284.405421822272
 20
443.02677165354334
 30
0.0
 11
1284.405421822272
 21
454.98330708661416
 31
0.0
  0
LINE
  5
4D
  8
0
 10
1284.405421822272
 20
454.98330708661416
 30
0.0
 11
1254.3319910011248
 21
454.98330708661416
 31
0.0
  0
LINE
  5
4D
  8
0
 10
1254.3319910011248
 20
454.98330708661416
 30
0.0
 11
1254.3319910011248
 21
443.02677165354334
 31
0.0
  0
LINE
  5
4D
  8
0
 10
1254.3319910011248
 20
443.02677165354334
 30
0.0
 11
1224.9785601799774
 21
443.02677165354334
 31
0.0
  0
LINE
  5
4D
  8
0
 10
1224.9785601799774
 20
443.02677165354334
 30
0.0
 11
1224.9785601799774
 21
454.98330708661416
 31
0.0
  0
LINE
  5
4D
  8
0
 10
1224.9785601799774
 20
454.98330708661416
 30
0.0
 11
1194.9051293588302
 21
454.98330708661416
 31
0.0
  0
LINE
  5
4D
  8
0
 10
1194.9051293588302
 20
454.98330708661416
 30
0.0
 11
1194.9051293588302
 21
443.02677165354334
 31
0.0
  0
LINE
  5
4D
  8
0
 10
1194.9051293588302
 20
443.02677165354334
 30
0.0
 11
1165.5516985376828
 21
443.02677165354334
 31
0.0
  0
LINE
  5
4D
  8
0
 10
1165.5516985376828
 20
443.02677165354334
 30
0.0
 11
1165.5516985376828
 21
454.98330708661416
 31
0.0
  0
LINE
  5
4D
  8
0
 10
1165.5516985376828
 20
454.98330708661416
 30
0.0
 11
1135.6582677165354
 21
454.98330708661416
 31
0.0
  0
LINE
  5
4D
  8
0
 10
1135.6582677165354
 20
454.98330708661416
 30
0.0
 11
1135.6582677165354
 21
426.40542182227233
 31
0.0
  0
LINE
  5
4D
  8
0
 10
1135.6582677165354
 20
426.40542182227233
 30
0.0
 11
1147.6148031496064
 21
426.40542182227233
 31
0.0
  0
LINE
  5
4D
  8
0
 10
1147.6148031496064
 20
426.40542182227233
 30
0.0
 11
1147.6148031496064
 21
398.3675365579304
 31
0.0
  0
LINE
  5
4D
  8
0
 10
1147.6148031496064
 20
398.3675365579304
 30
0.0
 11
1135.6582677165354
 21
398.3675365579304
 31
0.0
  0
LINE
  5
4D
  8
0
 10
1135.6582677165354
 20
398.3675365579304
 30
0.0
 11
1135.6582677165354
 21
369.6096512935884
 31
0.0
  0
LINE
  5
4D
  8
0
 10
1135.6582677165354
 20
369.6096512935884
 30
0.0
 11
1147.6148031496064
 21
369.6096512935884
 31
0.0
  0
LINE
  5
4D
  8
0
 10
1147.6148031496064
 20
369.6096512935884
 30
0.0
 11
1147.6148031496064
 21
341.5717660292464
 31
0.0
  0
LINE
  5
4D
  8
0
 10
1147.6148031496064
 20
341.5717660292464
 30
0.0
 11
1135.6582677165354
 21
341.5717660292464
 31
0.0
  0
LINE
  5
4D
  8
0
 10
1135.6582677165354
 20
341.5717660292464
 30
0.0
 11
1135.6582677165354
 21
312.8138807649044
 31
0.0
  0
LINE
  5
4D
  8
0
 10
1135.6582677165354
 20
312.8138807649044
 30
0.0
 11
1147.6148031496064
 21
312.8138807649044
 31
0.0
  0
LINE
  5
4D
  8
0
 10
1147.6148031496064
 20
312.8138807649044
 30
0.0
 11
1147.6148031496064
 21
284.7759955005625
 31
0.0
  0
LINE
  5
4D
  8
0
 10
1147.6148031496064
 20
284.7759955005625
 30
0.0
 11
1135.6582677165354
 21
284.7759955005625
 31
0.0
  0
LINE
  5
4D
  8
0
 10
1135.6582677165354
 20
284.7759955005625
 30
0.0
 11
1135.6582677165354
 21
256.1981102362205
 31
0.0
  0
LINE
  5
4D
  8
0
 10
1135.6582677165354
 20
256.1981102362205
 30
0.0
 11
1165.5516985376828
 21
256.1981102362205
 31
0.0
  0
LINE
  5
4D
  8
0
 10
1165.5516985376828
 20
256.1981102362205
 30
0.0
 11
1165.5516985376828
 21
268.15464566929137
 31
0.0
  0
LINE
  5
4D
  8
0
 10
1165.5516985376828
 20
268.15464566929137
 30
0.0
 11
1194.9051293588302
 21
268.15464566929137
 31
0.0
  0
LINE
  5
4D
  8
0
 10
1194.9051293588302
 20
268.15464566929137
 30
0.0
 11
1194.9051293588302
 21
256.1981102362205
 31
0.0
  0
LINE
  5
4D
  8
0
 10
1194.9051293588302
 20
256.1981102362205
 30
0.0
 11
1224.9785601799774
 21
256.1981102362205
 31
0.0
  0
LINE
  5
4D
  8
0
 10
1224.9785601799774
 20
256.1981102362205
 30
0.0
 11
1224.9785601799774
 21
268.15464566929137
 31
0.0
  0
LINE
  5
4D
  8
0
 10
1224.9785601799774
 20
268.15464566929137
 30
0.0
 11
1254.3319910011248
 21
268.15464566929137
 31
0.0
  0
LINE
  5
4D
  8
0
 10
1254.3319910011248
 20
268.15464566929137
 30
0.0
 11
1254.3319910011248
 21
256.1981102362205
 31
0.0
  0
LINE
  5
4D
  8
0
 10
1254.3319910011248
 20
256.1981102362205
 30
0.0
 11
1284.405421822272
 21
256.1981102362205
 31
0.0
  0
LINE
  5
4D
  8
0
 10
1284.405421822272
 20
256.1981102362205
 30
0.0
 11
1284.405421822272
 21
268.15464566929137
 31
0.0
  0
LINE
  5
4D
  8
0
 10
1284.405421822272
 20
268.15464566929137
 30
0.0
 11
1313.7588526434195
 21
268.15464566929137
 31
0.0
  0
LINE
  5
4D
  8
0
 10
1313.7588526434195
 20
268.15464566929137
 30
0.0
 11
1313.7588526434195
 21
256.1981102362205
 31
0.0
  0
LINE
  5
4D
  8
0
 10
1313.7588526434195
 20
256.1981102362205
 30
0.0
 11
1343.8322834645664
 21
256.1981102362205
 31
0.0
  0
LINE
  5
4D
  8
0
 10
1343.8322834645664
 20
256.1981102362205
 30
0.0
 11
1343.8322834645664
 21
268.15464566929137
 31
0.0
  0
LINE
  5
4D
  8
0
 10
1343.8322834645664
 20
268.15464566929137
 30
0.0
 11
1373.185714285714
 21
268.15464566929137
 31
0.0
  0
LINE
  5
4D
  8
0
 10
1373.185714285714
 20
268.15464566929137
 30
0.0
 11
1373.185714285714
 21
256.1981102362205
 31
0.0
  0
LINE
  5
4D
  8
0
 10
1373.185714285714
 20
256.1981102362205
 30
0.0
 11
1403.259145106861
 21
256.1981102362205
 31
0.0
  0
LINE
  5
4D
  8
0
 10
1403.259145106861
 20
256.1981102362205
 30
0.0
 11
1403.259145106861
 21
268.15464566929137
 31
0.0
  0
LINE
  5
4D
  8
0
 10
1403.259145106861
 20
268.15464566929137
 30
0.0
 11
1432.6125759280085
 21
268.15464566929137
 31
0.0
  0
LINE
  5
4D
  8
0
 10
1432.6125759280085
 20
268.15464566929137
 30
0.0
 11
1432.6125759280085
 21
256.1981102362205
 31
0.0
  0
LINE
  5
4D
  8
0
 10
1432.6125759280085
 20
256.1981102362205
 30
0.0
 11
1462.686006749156
 21
256.1981102362205
 31
0.0
  0
LINE
  5
4D
  8
0
 10
1462.686006749156
 20
256.1981102362205
 30
0.0
 11
1462.686006749156
 21
268.15464566929137
 31
0.0
  0
LINE
  5
4D
  8
0
 10
1462.686006749156
 20
268.15464566929137
 30
0.0
 11
1492.0394375703036
 21
268.15464566929137
 31
0.0
  0
LINE
  5
4D
  8
0
 10
1492.0394375703036
 20
268.15464566929137
 30
0.0
 11
1492.0394375703036
 21
256.1981102362205
 31
0.0
  0
LINE
  5
4D
  8
0
 10
1492.0394375703036
 20
256.1981102362205
 30
0.0
 11
1522.1128683914508
 21
256.1981102362205
 31
0.0
  0
LINE
  5
4D
  8
0
 10
1522.1128683914508
 20
256.1981102362205
 30
0.0
 11
1522.1128683914508
 21
268.15464566929137
 31
0.0
  0
LINE
  5
4D
  8
0
 10
1522.1128683914508
 20
268.15464566929137
 30
0.0
 11
1551.4662992125984
 21
268.15464566929137
 31
0.0
  0
LINE
  5
4D
  8
0
 10
1551.4662992125984
 20
268.15464566929137
 30
0.0
 11
1551.4662992125984
 21
256.1981102362205
 31
0.0
  0
LINE
  5
4D
  8
0
 10
1551.4662992125984
 20
256.1981102362205
 30
0.0
 11
1581.5397300337459
 21
256.1981102362205
 31
0.0
  0
LINE
  5
4D
  8
0
 10
1581.5397300337459
 20
256.1981102362205
 30
0.0
 11
1581.5397300337459
 21
268.15464566929137
 31
0.0
  0
LINE
  5
4D
  8
0
 10
1581.5397300337459
 20
268.15464566929137
 30
0.0
 11
1610.8931608548933
 21
268.15464566929137
 31
0.0
  0
LINE
  5
4D
  8
0
 10
1610.8931608548933
 20
268.15464566929137
 30
0.0
 11
1610.8931608548933
 21
256.1981102362205
 31
0.0
  0
LINE
  5
4D
  8
0
 10
1610.8931608548933
 20
256.1981102362205
 30
0.0
 11
1640.9665916760407
 21
256.1981102362205
 31
0.0
  0
LINE
  5
4D
  8
0
 10
1640.9665916760407
 20
256.1981102362205
 30
0.0
 11
1640.9665916760407
 21
268.15464566929137
 31
0.0
  0
LINE
  5
4D
  8
0
 10
1640.9665916760407
 20
268.15464566929137
 30
0.0
 11
1670.3200224971883
 21
268.15464566929137
 31
0.0
  0
LINE
  5
4D
  8
0
 10
1670.3200224971883
 20
268.15464566929137
 30
0.0
 11
1670.3200224971883
 21
256.1981102362205
 31
0.0
  0
LINE
  5
4D
  8
0
 10
1670.3200224971883
 20
256.1981102362205
 30
0.0
 11
1700.3934533183356
 21
256.1981102362205
 31
0.0
  0
LINE
  5
4D
  8
0
 10
1700.3934533183356
 20
256.1981102362205
 30
0.0
 11
1700.3934533183356
 21
268.15464566929137
 31
0.0
  0
LINE
  5
4D
  8
0
 10
1700.3934533183356
 20
268.15464566929137
 30
0.0
 11
1729.7468841394832
 21
268.15464566929137
 31
0.0
  0
LINE
  5
4D
  8
0
 10
1729.7468841394832
 20
268.15464566929137
 30
0.0
 11
1729.7468841394832
 21
256.1981102362205
 31
0.0
  0
LINE
  5
4D
  8
0
 10
1729.7468841394832
 20
256.1981102362205
 30
0.0
 11
1747.6837795275592
 21
256.1981102362205
 31
0.0
  0
LINE
  5
4D
  8
0
 10
1747.6837795275592
 20
256.1981102362205
 30
0.0
 11
1747.6837795275592
 21
284.4159955005625
 31
0.0
  0
LINE
  5
4D
  8
0
 10
1747.6837795275592
 20
284.4159955005625
 30
0.0
 11
1759.64031496063
 21
284.4159955005625
 31
0.0
  0
LINE
  5
4D
  8
0
 10
1759.64031496063
 20
284.4159955005625
 30
0.0
 11
1759.64031496063
 21
313.1738807649045
 31
0.0
  0
LINE
  5
4D
  8
0
 10
1759.64031496063
 20
313.1738807649045
 30
0.0
 11
1747.6837795275592
 21
313.1738807649045
 31
0.0
  0
LINE
  5
4D
  8
0
 10
1747.6837795275592
 20
313.1738807649045
 30
0.0
 11
1747.6837795275592
 21
341.2117660292464
 31
0.0
  0
LINE
  5
4D
  8
0
 10
1747.6837795275592
 20
341.2117660292464
 30
0.0
 11
1759.64031496063
 21
341.2117660292464
 31
0.0
  0
LINE
  5
4D
  8
0
 10
1759.64031496063
 20
341.2117660292464
 30
0.0
 11
1759.64031496063
 21
369.9696512935884
 31
0.0
  0
LINE
  5
4D
  8
0
 10
1759.64031496063
 20
369.9696512935884
 30
0.0
 11
1747.6837795275592
 21
369.9696512935884
 31
0.0
  0
LINE
  5
4D
  8
0
 10
1747.6837795275592
 20
369.9696512935884
 30
0.0
 11
1747.6837795275592
 21
398.00753655793034
 31
0.0
  0
LINE
  5
4D
  8
0
 10
1747.6837795275592
 20
398.00753655793034
 30
0.0
 11
1759.64031496063
 21
398.00753655793034
 31
0.0
  0
LINE
  5
4D
  8
0
 10
1759.64031496063
 20
398.00753655793034
 30
0.0
 11
1759.64031496063
 21
426.76542182227234
 31
0.0
  0
LINE
  5
4D
  8
0
 10
1759.64031496063
 20
426.76542182227234
 30
0.0
 11
1747.6837795275592
 21
426.76542182227234
 31
0.0
  0
LINE
  5
4D
  8
0
 10
1747.6837795275592
 20
426.76542182227234
 30
0.0
 11
1747.6837795275592
 21
454.98330708661433
 31
0.0
  0
LINE
  5
4D
  8
0
 10
1094.9952755905513
 20
868.2236220472441
 30
0.0
 11
1094.9952755905513
 21
850.6467266591676
 31
0.0
  0
LINE
  5
4D
  8
0
 10
1094.9952755905513
 20
850.6467266591676
 30
0.0
 11
1106.9518110236222
 21
850.6467266591676
 31
0.0
  0
LINE
  5
4D
  8
0
 10
1106.9518110236222
 20
850.6467266591676
 30
0.0
 11
1106.9518110236222
 21
820.5732958380205
 31
0.0
  0
LINE
  5
4D
  8
0
 10
1106.9518110236222
 20
820.5732958380205
 30
0.0
 11
1094.9952755905513
 21
820.5732958380205
 31
0.0
  0
LINE
  5
4D
  8
0
 10
1094.9952755905513
 20
820.5732958380205
 30
0.0
 11
1094.9952755905513
 21
791.2198650168731
 31
0.0
  0
LINE
  5
4D
  8
0
 10
1094.9952755905513
 20
791.2198650168731
 30
0.0
 11
1106.9518110236222
 21
791.2198650168731
 31
0.0
  0
LINE
  5
4D
  8
0
 10
1106.9518110236222
 20
791.2198650168731
 30
0.0
 11
1106.9518110236222
 21
761.1464341957259
 31
0.0
  0
LINE
  5
4D
  8
0
 10
1106.9518110236222
 20
761.1464341957259
 30
0.0
 11
1094.9952755905513
 21
761.1464341957259
 31
0.0
  0
LINE
  5
4D
  8
0
 10
1094.9952755905513
 20
761.1464341957259
 30
0.0
 11
1094.9952755905513
 21
731.7930033745785
 31
0.0
  0
LINE
  5
4D
  8
0
 10
1094.9952755905513
 20
731.7930033745785
 30
0.0
 11
1106.9518110236222
 21
731.7930033745785
 31
0.0
  0
LINE
  5
4D
  8
0
 10
1106.9518110236222
 20
731.7930033745785
 30
0.0
 11
1106.9518110236222
 21
701.7195725534311
 31
0.0
  0
LINE
  5
4D
  8
0
 10
1106.9518110236222
 20
701.7195725534311
 30
0.0
 11
1094.9952755905513
 21
701.7195725534311
 31
0.0
  0
LINE
  5
4D
  8
0
 10
1094.9952755905513
 20
701.7195725534311
 30
0.0
 11
1094.9952755905513
 21
672.3661417322838
 31
0.0
  0
LINE
  5
4D
  8
0
 10
1094.9952755905513
 20
672.3661417322838
 30
0.0
 11
1106.9518110236222
 21
672.3661417322838
 31
0.0
  0
LINE
  5
4D
  8
0
 10
1106.9518110236222
 20
672.3661417322838
 30
0.0
 11
1106.9518110236222
 21
642.2927109111364
 31
0.0
  0
LINE
  5
4D
  8
0
 10
1106.9518110236222
 20
642.2927109111364
 30
0.0
 11
1094.9952755905513
 21
642.2927109111364
 31
0.0
  0
LINE
  5
4D
  8
0
 10
1094.9952755905513
 20
642.2927109111364
 30
0.0
 11
1094.9952755905513
 21
612.9392800899891
 31
0.0
  0
LINE
  5
4D
  8
0
 10
1094.9952755905513
 20
612.9392800899891
 30
0.0
 11
1106.9518110236222
 21
612.9392800899891
 31
0.0
  0
LINE
  5
4D
  8
0
 10
1106.9518110236222
 20
612.9392800899891
 30
0.0
 11
1106.9518110236222
 21
582.8658492688417
 31
0.0
  0
LINE
  5
4D
  8
0
 10
1106.9518110236222
 20
582.8658492688417
 30
0.0
 11
1094.9952755905513
 21
582.8658492688417
 31
0.0
  0
LINE
  5
4D
  8
0
 10
1094.9952755905513
 20
582.8658492688417
 30
0.0
 11
1094.9952755905513
 21
553.5124184476944
 31
0.0
  0
LINE
  5
4D
  8
0
 10
1094.9952755905513
 20
553.5124184476944
 30
0.0
 11
1106.9518110236222
 21
553.5124184476944
 31
0.0
  0
LINE
  5
4D
  8
0
 10
1106.9518110236222
 20
553.5124184476944
 30
0.0
 11
1106.9518110236222
 21
523.4389876265469
 31
0.0
  0
LINE
  5
4D
  8
0
 10
1106.9518110236222
 20
523.4389876265469
 30
0.0
 11
1094.9952755905513
 21
523.4389876265469
 31
0.0
  0
LINE
  5
4D
  8
0
 10
1094.9952755905513
 20
523.4389876265469
 30
0.0
 11
1094.9952755905513
 21
494.08555680539956
 31
0.0
  0
LINE
  5
4D
  8
0
 10
1094.9952755905513
 20
494.08555680539956
 30
0.0
 11
1106.9518110236222
 21
494.08555680539956
 31
0.0
  0
LINE
  5
4D
  8
0
 10
1106.9518110236222
 20
494.08555680539956
 30
0.0
 11
1106.9518110236222
 21
464.0121259842521
 31
0.0
  0
LINE
  5
4D
  8
0
 10
1106.9518110236222
 20
464.0121259842521
 30
0.0
 11
1094.9952755905513
 21
464.0121259842521
 31
0.0
  0
LINE
  5
4D
  8
0
 10
1094.9952755905513
 20
464.0121259842521
 30
0.0
 11
1094.9952755905513
 21
434.65869516310477
 31
0.0
  0
LINE
  5
4D
  8
0
 10
1094.9952755905513
 20
434.65869516310477
 30
0.0
 11
1106.9518110236222
 21
434.65869516310477
 31
0.0
  0
LINE
  5
4D
  8
0
 10
1106.9518110236222
 20
434.65869516310477
 30
0.0
 11
1106.9518110236222
 21
404.5852643419574
 31
0.0
  0
LINE
  5
4D
  8
0
 10
1106.9518110236222
 20
404.5852643419574
 30
0.0
 11
1094.9952755905513
 21
404.5852643419574
 31
0.0
  0
LINE
  5
4D
  8
0
 10
1094.9952755905513
 20
404.5852643419574
 30
0.0
 11
1094.9952755905513
 21
375.23183352081
 31
0.0
  0
LINE
  5
4D
  8
0
 10
1094.9952755905513
 20
375.23183352081
 30
0.0
 11
1106.9518110236222
 21
375.23183352081
 31
0.0
  0
LINE
  5
4D
  8
0
 10
1106.9518110236222
 20
375.23183352081
 30
0.0
 11
1106.9518110236222
 21
345.15840269966264
 31
0.0
  0
LINE
  5
4D
  8
0
 10
1106.9518110236222
 20
345.15840269966264
 30
0.0
 11
1094.9952755905513
 21
345.15840269966264
 31
0.0
  0
LINE
  5
4D
  8
0
 10
1094.9952755905513
 20
345.15840269966264
 30
0.0
 11
1094.9952755905513
 21
315.8049718785153
 31
0.0
  0
LINE
  5
4D
  8
0
 10
1094.9952755905513
 20
315.8049718785153
 30
0.0
 11
1106.9518110236222
 21
315.8049718785153
 31
0.0
  0
LINE
  5
4D
  8
0
 10
1106.9518110236222
 20
315.8049718785153
 30
0.0
 11
1106.9518110236222
 21
285.73154105736785
 31
0.0
  0
LINE
  5
4D
  8
0
 10
1106.9518110236222
 20
285.73154105736785
 30
0.0
 11
1094.9952755905513
 21
285.73154105736785
 31
0.0
  0
LINE
  5
4D
  8
0
 10
1094.9952755905513
 20
285.73154105736785
 30
0.0
 11
1094.9952755905513
 21
268.15464566929137
 31
0.0
  0
LINE
  5
4D
  8
0
 10
1094.9952755905513
 20
268.15464566929137
 30
0.0
 11
1074.396668685645
 21
268.15464566929137
 31
0.0
  0
LINE
  5
4D
  8
0
 10
1074.396668685645
 20
268.15464566929137
 30
0.0
 11
1074.396668685645
 21
256.1981102362205
 31
0.0
  0
LINE
  5
4D
  8
0
 10
1074.396668685645
 20
256.1981102362205
 30
0.0
 11
1041.3015263476682
 21
256.1981102362205
 31
0.0
  0
LINE
  5
4D
  8
0
 10
1041.3015263476682
 20
256.1981102362205
 30
0.0
 11
1041.3015263476682
 21
268.15464566929137
 31
0.0
  0
LINE
  5
4D
  8
0
 10
1041.3015263476682
 20
268.15464566929137
 30
0.0
 11
1008.9263840096911
 21
268.15464566929137
 31
0.0
  0
LINE
  5
4D
  8
0
 10
1008.9263840096911
 20
268.15464566929137
 30
0.0
 11
1008.9263840096911
 21
256.1981102362205
 31
0.0
  0
LINE
  5
4D
  8
0
 10
1008.9263840096911
 20
256.1981102362205
 30
0.0
 11
975.8312416717142
 21
256.1981102362205
 31
0.0
  0
LINE
  5
4D
  8
0
 10
975.8312416717142
 20
256.1981102362205
 30
0.0
 11
975.8312416717142
 21
268.15464566929137
 31
0.0
  0
LINE
  5
4D
  8
0
 10
975.8312416717142
 20
268.15464566929137
 30
0.0
 11
943.4560993337371
 21
268.15464566929137
 31
0.0
  0
LINE
  5
4D
  8
0
 10
943.4560993337371
 20
268.15464566929137
 30
0.0
 11
943.4560993337371
 21
256.1981102362205
 31
0.0
  0
LINE
  5
4D
  8
0
 10
943.4560993337371
 20
256.1981102362205
 30
0.0
 11
910.3609569957603
 21
256.1981102362205
 31
0.0
  0
LINE
  5
4D
  8
0
 10
910.3609569957603
 20
256.1981102362205
 30
0.0
 11
910.3609569957603
 21
268.15464566929137
 31
0.0
  0
LINE
  5
4D
  8
0
 10
910.3609569957603
 20
268.15464566929137
 30
0.0
 11
877.9858146577831
 21
268.15464566929137
 31
0.0
  0
LINE
  5
4D
  8
0
 10
877.9858146577831
 20
268.15464566929137
 30
0.0
 11
877.9858146577831
 21
256.1981102362205
 31
0.0
  0
LINE
  5
4D
  8
0
 10
877.9858146577831
 20
256.1981102362205
 30
0.0
 11
844.8906723198063
 21
256.1981102362205
 31
0.0
  0
LINE
  5
4D
  8
0
 10
844.8906723198063
 20
256.1981102362205
 30
0.0
 11
844.8906723198063
 21
268.15464566929137
 31
0.0
  0
LINE
  5
4D
  8
0
 10
844.8906723198063
 20
268.15464566929137
 30
0.0
 11
812.5155299818291
 21
268.15464566929137
 31
0.0
  0
LINE
  5
4D
  8
0
 10
812.5155299818291
 20
268.15464566929137
 30
0.0
 11
812.5155299818291
 21
256.1981102362205
 31
0.0
  0
LINE
  5
4D
  8
0
 10
812.5155299818291
 20
256.1981102362205
 30
0.0
 11
779.4203876438523
 21
256.1981102362205
 31
0.0
  0
LINE
  5
4D
  8
0
 10
779.4203876438523
 20
256.1981102362205
 30
0.0
 11
779.4203876438523
 21
268.15464566929137
 31
0.0
  0
LINE
  5
4D
  8
0
 10
779.4203876438523
 20
268.15464566929137
 30
0.0
 11
747.0452453058751
 21
268.15464566929137
 31
0.0
  0
LINE
  5
4D
  8
0
 10
747.0452453058751
 20
268.15464566929137
 30
0.0
 11
747.0452453058751
 21
256.1981102362205
 31
0.0
  0
LINE
  5
4D
  8
0
 10
747.0452453058751
 20
256.1981102362205
 30
0.0
 11
713.9501029678983
 21
256.1981102362205
 31
0.0
  0
LINE
  5
4D
  8
0
 10
713.9501029678983
 20
256.1981102362205
 30
0.0
 11
713.9501029678983
 21
268.15464566929137
 31
0.0
  0
LINE
  5
4D
  8
0
 10
713.9501029678983
 20
268.15464566929137
 30
0.0
 11
693.3514960629922
 21
268.15464566929137
 31
0.0
  0
LINE
  5
4D
  8
0
 10
693.3514960629922
 20
268.15464566929137
 30
0.0
 11
693.3514960629922
 21
285.73154105736785
 31
0.0
  0
LINE
  5
4D
  8
0
 10
693.3514960629922
 20
285.73154105736785
 30
0.0
 11
681.3949606299213
 21
285.73154105736785
 31
0.0
  0
LINE
  5
4D
  8
0
 10
681.3949606299213
 20
285.73154105736785
 30
0.0
 11
681.3949606299213
 21
315.8049718785153
 31
0.0
  0
LINE
  5
4D
  8
0
 10
681.3949606299213
 20
315.8049718785153
 30
0.0
 11
693.3514960629922
 21
315.8049718785153
 31
0.0
  0
LINE
  5
4D
  8
0
 10
693.3514960629922
 20
315.8049718785153
 30
0.0
 11
693.3514960629922
 21
345.15840269966264
 31
0.0
  0
LINE
  5
4D
  8
0
 10
693.3514960629922
 20
345.15840269966264
 30
0.0
 11
681.3949606299213
 21
345.15840269966264
 31
0.0
  0
LINE
  5
4D
  8
0
 10
681.3949606299213
 20
345.15840269966264
 30
0.0
 11
681.3949606299213
 21
375.23183352081
 31
0.0
  0
LINE
  5
4D
  8
0
 10
681.3949606299213
 20
375.23183352081
 30
0.0
 11
693.3514960629922
 21
375.23183352081
 31
0.0
  0
LINE
  5
4D
  8
0
 10
693.3514960629922
 20
375.23183352081
 30
0.0
 11
693.3514960629922
 21
404.5852643419574
 31
0.0
  0
LINE
  5
4D
  8
0
 10
693.3514960629922
 20
404.5852643419574
 30
0.0
 11
681.3949606299213
 21
404.5852643419574
 31
0.0
  0
LINE
  5
4D
  8
0
 10
681.3949606299213
 20
404.5852643419574
 30
0.0
 11
681.3949606299213
 21
434.65869516310477
 31
0.0
  0
LINE
  5
4D
  8
0
 10
681.3949606299213
 20
434.65869516310477
 30
0.0
 11
693.3514960629922
 21
434.65869516310477
 31
0.0
  0
LINE
  5
4D
  8
0
 10
693.3514960629922
 20
434.65869516310477
 30
0.0
 11
693.3514960629922
 21
464.0121259842521
 31
0.0
  0
LINE
  5
4D
  8
0
 10
693.3514960629922
 20
464.0121259842521
 30
0.0
 11
681.3949606299213
 21
464.0121259842521
 31
0.0
  0
LINE
  5
4D
  8
0
 10
681.3949606299213
 20
464.0121259842521
 30
0.0
 11
681.3949606299213
 21
494.08555680539956
 31
0.0
  0
LINE
  5
4D
  8
0
 10
681.3949606299213
 20
494.08555680539956
 30
0.0
 11
693.3514960629922
 21
494.08555680539956
 31
0.0
  0
LINE
  5
4D
  8
0
 10
693.3514960629922
 20
494.08555680539956
 30
0.0
 11
693.3514960629922
 21
523.4389876265469
 31
0.0
  0
LINE
  5
4D
  8
0
 10
693.3514960629922
 20
523.4389876265469
 30
0.0
 11
681.3949606299213
 21
523.4389876265469
 31
0.0
  0
LINE
  5
4D
  8
0
 10
681.3949606299213
 20
523.4389876265469
 30
0.0
 11
681.3949606299213
 21
553.5124184476944
 31
0.0
  0
LINE
  5
4D
  8
0
 10
681.3949606299213
 20
553.5124184476944
 30
0.0
 11
693.3514960629922
 21
553.5124184476944
 31
0.0
  0
LINE
  5
4D
  8
0
 10
693.3514960629922
 20
553.5124184476944
 30
0.0
 11
693.3514960629922
 21
582.8658492688417
 31
0.0
  0
LINE
  5
4D
  8
0
 10
693.3514960629922
 20
582.8658492688417
 30
0.0
 11
681.3949606299213
 21
582.8658492688417
 31
0.0
  0
LINE
  5
4D
  8
0
 10
681.3949606299213
 20
582.8658492688417
 30
0.0
 11
681.3949606299213
 21
612.9392800899891
 31
0.0
  0
LINE
  5
4D
  8
0
 10
681.3949606299213
 20
612.9392800899891
 30
0.0
 11
693.3514960629922
 21
612.9392800899891
 31
0.0
  0
LINE
  5
4D
  8
0
 10
693.3514960629922
 20
612.9392800899891
 30
0.0
 11
693.3514960629922
 21
642.2927109111364
 31
0.0
  0
LINE
  5
4D
  8
0
 10
693.3514960629922
 20
642.2927109111364
 30
0.0
 11
681.3949606299213
 21
642.2927109111364
 31
0.0
  0
LINE
  5
4D
  8
0
 10
681.3949606299213
 20
642.2927109111364
 30
0.0
 11
681.3949606299213
 21
672.3661417322838
 31
0.0
  0
LINE
  5
4D
  8
0
 10
681.3949606299213
 20
672.3661417322838
 30
0.0
 11
693.3514960629922
 21
672.3661417322838
 31
0.0
  0
LINE
  5
4D
  8
0
 10
693.3514960629922
 20
672.3661417322838
 30
0.0
 11
693.3514960629922
 21
701.7195725534311
 31
0.0
  0
LINE
  5
4D
  8
0
 10
693.3514960629922
 20
701.7195725534311
 30
0.0
 11
681.3949606299213
 21
701.7195725534311
 31
0.0
  0
LINE
  5
4D
  8
0
 10
681.3949606299213
 20
701.7195725534311
 30
0.0
 11
681.3949606299213
 21
731.7930033745785
 31
0.0
  0
LINE
  5
4D
  8
0
 10
681.3949606299213
 20
731.7930033745785
 30
0.0
 11
693.3514960629922
 21
731.7930033745785
 31
0.0
  0
LINE
  5
4D
  8
0
 10
693.3514960629922
 20
731.7930033745785
 30
0.0
 11
693.3514960629922
 21
761.1464341957259
 31
0.0
  0
LINE
  5
4D
  8
0
 10
693.3514960629922
 20
761.1464341957259
 30
0.0
 11
681.3949606299213
 21
761.1464341957259
 31
0.0
  0
LINE
  5
4D
  8
0
 10
681.3949606299213
 20
761.1464341957259
 30
0.0
 11
681.3949606299213
 21
791.2198650168731
 31
0.0
  0
LINE
  5
4D
  8
0
 10
681.3949606299213
 20
791.2198650168731
 30
0.0
 11
693.3514960629922
 21
791.2198650168731
 31
0.0
  0
LINE
  5
4D
  8
0
 10
693.3514960629922
 20
791.2198650168731
 30
0.0
 11
693.3514960629922
 21
820.5732958380205
 31
0.0
  0
LINE
  5
4D
  8
0
 10
693.3514960629922
 20
820.5732958380205
 30
0.0
 11
681.3949606299213
 21
820.5732958380205
 31
0.0
  0
LINE
  5
4D
  8
0
 10
681.3949606299213
 20
820.5732958380205
 30
0.0
 11
681.3949606299213
 21
850.6467266591676
 31
0.0
  0
LINE
  5
4D
  8
0
 10
681.3949606299213
 20
850.6467266591676
 30
0.0
 11
693.3514960629922
 21
850.6467266591676
 31
0.0
  0
LINE
  5
4D
  8
0
 10
693.3514960629922
 20
850.6467266591676
 30
0.0
 11
693.3514960629922
 21
868.2236220472442
 31
0.0
  0
LINE
  5
4D
  8
0
 10
693.3514960629922
 20
868.2236220472442
 30
0.0
 11
713.9501029678983
 21
868.2236220472442
 31
0.0
  0
LINE
  5
4D
  8
0
 10
713.9501029678983
 20
868.2236220472442
 30
0.0
 11
713.9501029678983
 21
880.1801574803152
 31
0.0
  0
LINE
  5
4D
  8
0
 10
713.9501029678983
 20
880.1801574803152
 30
0.0
 11
747.0452453058751
 21
880.1801574803152
 31
0.0
  0
LINE
  5
4D
  8
0
 10
747.0452453058751
 20
880.1801574803152
 30
0.0
 11
747.0452453058751
 21
868.2236220472442
 31
0.0
  0
LINE
  5
4D
  8
0
 10
747.0452453058751
 20
868.2236220472442
 30
0.0
 11
779.4203876438523
 21
868.2236220472442
 31
0.0
  0
LINE
  5
4D
  8
0
 10
779.4203876438523
 20
868.2236220472442
 30
0.0
 11
779.4203876438523
 21
880.1801574803152
 31
0.0
  0
LINE
  5
4D
  8
0
 10
779.4203876438523
 20
880.1801574803152
 30
0.0
 11
812.5155299818291
 21
880.1801574803152
 31
0.0
  0
LINE
  5
4D
  8
0
 10
812.5155299818291
 20
880.1801574803152
 30
0.0
 11
812.5155299818291
 21
868.2236220472442
 31
0.0
  0
LINE
  5
4D
  8
0
 10
812.5155299818291
 20
868.2236220472442
 30
0.0
 11
844.8906723198063
 21
868.2236220472442
 31
0.0
  0
LINE
  5
4D
  8
0
 10
844.8906723198063
 20
868.2236220472442
 30
0.0
 11
844.8906723198063
 21
880.1801574803152
 31
0.0
  0
LINE
  5
4D
  8
0
 10
844.8906723198063
 20
880.1801574803152
 30
0.0
 11
877.9858146577831
 21
880.1801574803152
 31
0.0
  0
LINE
  5
4D
  8
0
 10
877.9858146577831
 20
880.1801574803152
 30
0.0
 11
877.9858146577831
 21
868.2236220472442
 31
0.0
  0
LINE
  5
4D
  8
0
 10
877.9858146577831
 20
868.2236220472442
 30
0.0
 11
910.3609569957603
 21
868.2236220472442
 31
0.0
  0
LINE
  5
4D
  8
0
 10
910.3609569957603
 20
868.2236220472442
 30
0.0
 11
910.3609569957603
 21
880.1801574803152
 31
0.0
  0
LINE
  5
4D
  8
0
 10
910.3609569957603
 20
880.1801574803152
 30
0.0
 11
943.4560993337371
 21
880.1801574803152
 31
0.0
  0
LINE
  5
4D
  8
0
 10
943.4560993337371
 20
880.1801574803152
 30
0.0
 11
943.4560993337371
 21
868.2236220472442
 31
0.0
  0
LINE
  5
4D
  8
0
 10
943.4560993337371
 20
868.2236220472442
 30
0.0
 11
975.8312416717142
 21
868.2236220472442
 31
0.0
  0
LINE
  5
4D
  8
0
 10
975.8312416717142
 20
868.2236220472442
 30
0.0
 11
975.8312416717142
 21
880.1801574803152
 31
0.0
  0
LINE
  5
4D
  8
0
 10
975.8312416717142
 20
880.1801574803152
 30
0.0
 11
1008.9263840096911
 21
880.1801574803152
 31
0.0
  0
LINE
  5
4D
  8
0
 10
1008.9263840096911
 20
880.1801574803152
 30
0.0
 11
1008.9263840096911
 21
868.2236220472442
 31
0.0
  0
LINE
  5
4D
  8
0
 10
1008.9263840096911
 20
868.2236220472442
 30
0.0
 11
1041.3015263476682
 21
868.2236220472442
 31
0.0
  0
LINE
  5
4D
  8
0
 10
1041.3015263476682
 20
868.2236220472442
 30
0.0
 11
1041.3015263476682
 21
880.1801574803152
 31
0.0
  0
LINE
  5
4D
  8
0
 10
1041.3015263476682
 20
880.1801574803152
 30
0.0
 11
1074.396668685645
 21
880.1801574803152
 31
0.0
  0
LINE
  5
4D
  8
0
 10
1074.396668685645
 20
880.1801574803152
 30
0.0
 11
1074.396668685645
 21
868.2236220472442
 31
0.0
  0
LINE
  5
4D
  8
0
 10
1074.396668685645
 20
868.2236220472442
 30
0.0
 11
1094.9952755905513
 21
868.2236220472442
 31
0.0
  0
LINE
  5
4D
  8
0
 10
640.7319685039374
 20
454.98330708661416
 30
0.0
 11
622.7950731158609
 21
454.98330708661416
 31
0.0
  0
LINE
  5
4D
  8
0
 10
622.7950731158609
 20
454.98330708661416
 30
0.0
 11
622.7950731158609
 21
443.02677165354334
 31
0.0
  0
LINE
  5
4D
  8
0
 10
622.7950731158609
 20
443.02677165354334
 30
0.0
 11
593.4416422947135
 21
443.02677165354334
 31
0.0
  0
LINE
  5
4D
  8
0
 10
593.4416422947135
 20
443.02677165354334
 30
0.0
 11
593.4416422947135
 21
454.98330708661416
 31
0.0
  0
LINE
  5
4D
  8
0
 10
593.4416422947135
 20
454.98330708661416
 30
0.0
 11
563.3682114735661
 21
454.98330708661416
 31
0.0
  0
LINE
  5
4D
  8
0
 10
563.3682114735661
 20
454.98330708661416
 30
0.0
 11
563.3682114735661
 21
443.02677165354334
 31
0.0
  0
LINE
  5
4D
  8
0
 10
563.3682114735661
 20
443.02677165354334
 30
0.0
 11
534.0147806524187
 21
443.02677165354334
 31
0.0
  0
LINE
  5
4D
  8
0
 10
534.0147806524187
 20
443.02677165354334
 30
0.0
 11
534.0147806524187
 21
454.98330708661416
 31
0.0
  0
LINE
  5
4D
  8
0
 10
534.0147806524187
 20
454.98330708661416
 30
0.0
 11
503.94134983127134
 21
454.98330708661416
 31
0.0
  0
LINE
  5
4D
  8
0
 10
503.94134983127134
 20
454.98330708661416
 30
0.0
 11
503.94134983127134
 21
443.02677165354334
 31
0.0
  0
LINE
  5
4D
  8
0
 10
503.94134983127134
 20
443.02677165354334
 30
0.0
 11
474.587919010124
 21
443.02677165354334
 31
0.0
  0
LINE
  5
4D
  8
0
 10
474.587919010124
 20
443.02677165354334
 30
0.0
 11
474.587919010124
 21
454.98330708661416
 31
0.0
  0
LINE
  5
4D
  8
0
 10
474.587919010124
 20
454.98330708661416
 30
0.0
 11
444.51448818897654
 21
454.98330708661416
 31
0.0
  0
LINE
  5
4D
  8
0
 10
444.51448818897654
 20
454.98330708661416
 30
0.0
 11
444.51448818897654
 21
443.02677165354334
 31
0.0
  0
LINE
  5
4D
  8
0
 10
444.51448818897654
 20
443.02677165354334
 30
0.0
 11
415.1610573678292
 21
443.02677165354334
 31
0.0
  0
LINE
  5
4D
  8
0
 10
415.1610573678292
 20
443.02677165354334
 30
0.0
 11
415.1610573678292
 21
454.98330708661416
 31
0.0
  0
LINE
  5
4D
  8
0
 10
415.1610573678292
 20
454.98330708661416
 30
0.0
 11
385.0876265466818
 21
454.98330708661416
 31
0.0
  0
LINE
  5
4D
  8
0
 10
385.0876265466818
 20
454.98330708661416
 30
0.0
 11
385.0876265466818
 21
443.02677165354334
 31
0.0
  0
LINE
  5
4D
  8
0
 10
385.0876265466818
 20
443.02677165354334
 30
0.0
 11
355.73419572553445
 21
443.02677165354334
 31
0.0
  0
LINE
  5
4D
  8
0
 10
355.73419572553445
 20
443.02677165354334
 30
0.0
 11
355.73419572553445
 21
454.98330708661416
 31
0.0
  0
LINE
  5
4D
  8
0
 10
355.73419572553445
 20
454.98330708661416
 30
0.0
 11
325.66076490438707
 21
454.98330708661416
 31
0.0
  0
LINE
  5
4D
  8
0
 10
325.66076490438707
 20
454.98330708661416
 30
0.0
 11
325.66076490438707
 21
443.02677165354334
 31
0.0
  0
LINE
  5
4D
  8
0
 10
325.66076490438707
 20
443.02677165354334
 30
0.0
 11
296.3073340832397
 21
443.02677165354334
 31
0.0
  0
LINE
  5
4D
  8
0
 10
296.3073340832397
 20
443.02677165354334
 30
0.0
 11
296.3073340832397
 21
454.98330708661416
 31
0.0
  0
LINE
  5
4D
  8
0
 10
296.3073340832397
 20
454.98330708661416
 30
0.0
 11
266.23390326209227
 21
454.98330708661416
 31
0.0
  0
LINE
  5
4D
  8
0
 10
266.23390326209227
 20
454.98330708661416
 30
0.0
 11
266.23390326209227
 21
443.02677165354334
 31
0.0
  0
LINE
  5
4D
  8
0
 10
266.23390326209227
 20
443.02677165354334
 30
0.0
 11
236.88047244094494
 21
443.02677165354334
 31
0.0
  0
LINE
  5
4D
  8
0
 10
236.88047244094494
 20
443.02677165354334
 30
0.0
 11
236.88047244094494
 21
454.98330708661416
 31
0.0
  0
LINE
  5
4D
  8
0
 10
236.88047244094494
 20
454.98330708661416
 30
0.0
 11
206.80704161979753
 21
454.98330708661416
 31
0.0
  0
LINE
  5
4D
  8
0
 10
206.80704161979753
 20
454.98330708661416
 30
0.0
 11
206.80704161979753
 21
443.02677165354334
 31
0.0
  0
LINE
  5
4D
  8
0
 10
206.80704161979753
 20
443.02677165354334
 30
0.0
 11
177.4536107986502
 21
443.02677165354334
 31
0.0
  0
LINE
  5
4D
  8
0
 10
177.4536107986502
 20
443.02677165354334
 30
0.0
 11
177.4536107986502
 21
454.98330708661416
 31
0.0
  0
LINE
  5
4D
  8
0
 10
177.4536107986502
 20
454.98330708661416
 30
0.0
 11
147.38017997750285
 21
454.98330708661416
 31
0.0
  0
LINE
  5
4D
  8
0
 10
147.38017997750285
 20
454.98330708661416
 30
0.0
 11
147.38017997750285
 21
443.02677165354334
 31
0.0
  0
LINE
  5
4D
  8
0
 10
147.38017997750285
 20
443.02677165354334
 30
0.0
 11
118.02674915635546
 21
443.02677165354334
 31
0.0
  0
LINE
  5
4D
  8
0
 10
118.02674915635546
 20
443.02677165354334
 30
0.0
 11
118.02674915635546
 21
454.98330708661416
 31
0.0
  0
LINE
  5
4D
  8
0
 10
118.02674915635546
 20
454.98330708661416
 30
0.0
 11
87.95331833520811
 21
454.98330708661416
 31
0.0
  0
LINE
  5
4D
  8
0
 10
87.95331833520811
 20
454.98330708661416
 30
0.0
 11
87.95331833520811
 21
443.02677165354334
 31
0.0
  0
LINE
  5
4D
  8
0
 10
87.95331833520811
 20
443.02677165354334
 30
0.0
 11
58.59988751406076
 21
443.02677165354334
 31
0.0
  0
LINE
  5
4D
  8
0
 10
58.59988751406076
 20
443.02677165354334
 30
0.0
 11
58.59988751406076
 21
454.98330708661416
 31
0.0
  0
LINE
  5
4D
  8
0
 10
58.59988751406076
 20
454.98330708661416
 30
0.0
 11
28.70645669291339
 21
454.98330708661416
 31
0.0
  0
LINE
  5
4D
  8
0
 10
28.70645669291339
 20
454.98330708661416
 30
0.0
 11
28.70645669291339
 21
426.40542182227233
 31
0.0
  0
LINE
  5
4D
  8
0
 10
28.70645669291339
 20
426.40542182227233
 30
0.0
 11
40.66299212598426
 21
426.40542182227233
 31
0.0
  0
LINE
  5
4D
  8
0
 10
40.66299212598426
 20
426.40542182227233
 30
0.0
 11
40.66299212598426
 21
398.3675365579304
 31
0.0
  0
LINE
  5
4D
  8
0
 10
40.66299212598426
 20
398.3675365579304
 30
0.0
 11
28.70645669291339
 21
398.3675365579304
 31
0.0
  0
LINE
  5
4D
  8
0
 10
28.70645669291339
 20
398.3675365579304
 30
0.0
 11
28.70645669291339
 21
369.6096512935884
 31
0.0
  0
LINE
  5
4D
  8
0
 10
28.70645669291339
 20
369.6096512935884
 30
0.0
 11
40.66299212598426
 21
369.6096512935884
 31
0.0
  0
LINE
  5
4D
  8
0
 10
40.66299212598426
 20
369.6096512935884
 30
0.0
 11
40.66299212598426
 21
341.5717660292464
 31
0.0
  0
LINE
  5
4D
  8
0
 10
40.66299212598426
 20
341.5717660292464
 30
0.0
 11
28.70645669291339
 21
341.5717660292464
 31
0.0
  0
LINE
  5
4D
  8
0
 10
28.70645669291339
 20
341.5717660292464
 30
0.0
 11
28.70645669291339
 21
312.8138807649044
 31
0.0
  0
LINE
  5
4D
  8
0
 10
28.70645669291339
 20
312.8138807649044
 30
0.0
 11
40.66299212598426
 21
312.8138807649044
 31
0.0
  0
LINE
  5
4D
  8
0
 10
40.66299212598426
 20
312.8138807649044
 30
0.0
 11
40.66299212598426
 21
284.7759955005625
 31
0.0
  0
LINE
  5
4D
  8
0
 10
40.66299212598426
 20
284.7759955005625
 30
0.0
 11
28.70645669291339
 21
284.7759955005625
 31
0.0
  0
LINE
  5
4D
  8
0
 10
28.70645669291339
 20
284.7759955005625
 30
0.0
 11
28.70645669291339
 21
256.1981102362205
 31
0.0
  0
LINE
  5
4D
  8
0
 10
28.70645669291339
 20
256.1981102362205
 30
0.0
 11
58.59988751406076
 21
256.1981102362205
 31
0.0
  0
LINE
  5
4D
  8
0
 10
58.59988751406076
 20
256.1981102362205
 30
0.0
 11
58.59988751406076
 21
268.15464566929137
 31
0.0
  0
LINE
  5
4D
  8
0
 10
58.59988751406076
 20
268.15464566929137
 30
0.0
 11
87.95331833520811
 21
268.15464566929137
 31
0.0
  0
LINE
  5
4D
  8
0
 10
87.95331833520811
 20
268.15464566929137
 30
0.0
 11
87.95331833520811
 21
256.1981102362205
 31
0.0
  0
LINE
  5
4D
  8
0
 10
87.95331833520811
 20
256.1981102362205
 30
0.0
 11
118.02674915635546
 21
256.1981102362205
 31
0.0
  0
LINE
  5
4D
  8
0
 10
118.02674915635546
 20
256.1981102362205
 30
0.0
 11
118.02674915635546
 21
268.15464566929137
 31
0.0
  0
LINE
  5
4D
  8
0
 10
118.02674915635546
 20
268.15464566929137
 30
0.0
 11
147.38017997750285
 21
268.15464566929137
 31
0.0
  0
LINE
  5
4D
  8
0
 10
147.38017997750285
 20
268.15464566929137
 30
0.0
 11
147.38017997750285
 21
256.1981102362205
 31
0.0
  0
LINE
  5
4D
  8
0
 10
147.38017997750285
 20
256.1981102362205
 30
0.0
 11
177.4536107986502
 21
256.1981102362205
 31
0.0
  0
LINE
  5
4D
  8
0
 10
177.4536107986502
 20
256.1981102362205
 30
0.0
 11
177.4536107986502
 21
268.15464566929137
 31
0.0
  0
LINE
  5
4D
  8
0
 10
177.4536107986502
 20
268.15464566929137
 30
0.0
 11
206.80704161979753
 21
268.15464566929137
 31
0.0
  0
LINE
  5
4D
  8
0
 10
206.80704161979753
 20
268.15464566929137
 30
0.0
 11
206.80704161979753
 21
256.1981102362205
 31
0.0
  0
LINE
  5
4D
  8
0
 10
206.80704161979753
 20
256.1981102362205
 30
0.0
 11
236.88047244094494
 21
256.1981102362205
 31
0.0
  0
LINE
  5
4D
  8
0
 10
236.88047244094494
 20
256.1981102362205
 30
0.0
 11
236.88047244094494
 21
268.15464566929137
 31
0.0
  0
LINE
  5
4D
  8
0
 10
236.88047244094494
 20
268.15464566929137
 30
0.0
 11
266.23390326209227
 21
268.15464566929137
 31
0.0
  0
LINE
  5
4D
  8
0
 10
266.23390326209227
 20
268.15464566929137
 30
0.0
 11
266.23390326209227
 21
256.1981102362205
 31
0.0
  0
LINE
  5
4D
  8
0
 10
266.23390326209227
 20
256.1981102362205
 30
0.0
 11
296.3073340832397
 21
256.1981102362205
 31
0.0
  0
LINE
  5
4D
  8
0
 10
296.3073340832397
 20
256.1981102362205
 30
0.0
 11
296.3073340832397
 21
268.15464566929137
 31
0.0
  0
LINE
  5
4D
  8
0
 10
296.3073340832397
 20
268.15464566929137
 30
0.0
 11
325.66076490438707
 21
268.15464566929137
 31
0.0
  0
LINE
  5
4D
  8
0
 10
325.66076490438707
 20
268.15464566929137
 30
0.0
 11
325.66076490438707
 21
256.1981102362205
 31
0.0
  0
LINE
  5
4D
  8
0
 10
325.66076490438707
 20
256.1981102362205
 30
0.0
 11
355.73419572553445
 21
256.1981102362205
 31
0.0
  0
LINE
  5
4D
  8
0
 10
355.73419572553445
 20
256.1981102362205
 30
0.0
 11
355.73419572553445
 21
268.15464566929137
 31
0.0
  0
LINE
  5
4D
  8
0
 10
355.73419572553445
 20
268.15464566929137
 30
0.0
 11
385.0876265466818
 21
268.15464566929137
 31
0.0
  0
LINE
  5
4D
  8
0
 10
385.0876265466818
 20
268.15464566929137
 30
0.0
 11
385.0876265466818
 21
256.1981102362205
 31
0.0
  0
LINE
  5
4D
  8
0
 10
385.0876265466818
 20
256.1981102362205
 30
0.0
 11
415.1610573678292
 21
256.1981102362205
 31
0.0
  0
LINE
  5
4D
  8
0
 10
415.1610573678292
 20
256.1981102362205
 30
0.0
 11
415.1610573678292
 21
268.15464566929137
 31
0.0
  0
LINE
  5
4D
  8
0
 10
415.1610573678292
 20
268.15464566929137
 30
0.0
 11
444.51448818897654
 21
268.15464566929137
 31
0.0
  0
LINE
  5
4D
  8
0
 10
444.51448818897654
 20
268.15464566929137
 30
0.0
 11
444.51448818897654
 21
256.1981102362205
 31
0.0
  0
LINE
  5
4D
  8
0
 10
444.51448818897654
 20
256.1981102362205
 30
0.0
 11
474.587919010124
 21
256.1981102362205
 31
0.0
  0
LINE
  5
4D
  8
0
 10
474.587919010124
 20
256.1981102362205
 30
0.0
 11
474.587919010124
 21
268.15464566929137
 31
0.0
  0
LINE
  5
4D
  8
0
 10
474.587919010124
 20
268.15464566929137
 30
0.0
 11
503.94134983127134
 21
268.15464566929137
 31
0.0
  0
LINE
  5
4D
  8
0
 10
503.94134983127134
 20
268.15464566929137
 30
0.0
 11
503.94134983127134
 21
256.1981102362205
 31
0.0
  0
LINE
  5
4D
  8
0
 10
503.94134983127134
 20
256.1981102362205
 30
0.0
 11
534.0147806524187
 21
256.1981102362205
 31
0.0
  0
LINE
  5
4D
  8
0
 10
534.0147806524187
 20
256.1981102362205
 30
0.0
 11
534.0147806524187
 21
268.15464566929137
 31
0.0
  0
LINE
  5
4D
  8
0
 10
534.0147806524187
 20
268.15464566929137
 30
0.0
 11
563.3682114735661
 21
268.15464566929137
 31
0.0
  0
LINE
  5
4D
  8
0
 10
563.3682114735661
 20
268.15464566929137
 30
0.0
 11
563.3682114735661
 21
256.1981102362205
 31
0.0
  0
LINE
  5
4D
  8
0
 10
563.3682114735661
 20
256.1981102362205
 30
0.0
 11
593.4416422947135
 21
256.1981102362205
 31
0.0
  0
LINE
  5
4D
  8
0
 10
593.4416422947135
 20
256.1981102362205
 30
0.0
 11
593.4416422947135
 21
268.15464566929137
 31
0.0
  0
LINE
  5
4D
  8
0
 10
593.4416422947135
 20
268.15464566929137
 30
0.0
 11
622.7950731158609
 21
268.15464566929137
 31
0.0
  0
LINE
  5
4D
  8
0
 10
622.7950731158609
 20
268.15464566929137
 30
0.0
 11
622.7950731158609
 21
256.1981102362205
 31
0.0
  0
LINE
  5
4D
  8
0
 10
622.7950731158609
 20
256.1981102362205
 30
0.0
 11
640.7319685039372
 21
256.1981102362205
 31
0.0
  0
LINE
  5
4D
  8
0
 10
640.7319685039372
 20
256.1981102362205
 30
0.0
 11
640.7319685039372
 21
284.4159955005625
 31
0.0
  0
LINE
  5
4D
  8
0
 10
640.7319685039372
 20
284.4159955005625
 30
0.0
 11
652.688503937008
 21
284.4159955005625
 31
0.0
  0
LINE
  5
4D
  8
0
 10
652.688503937008
 20
284.4159955005625
 30
0.0
 11
652.688503937008
 21
313.1738807649045
 31
0.0
  0
LINE
  5
4D
  8
0
 10
652.688503937008
 20
313.1738807649045
 30
0.0
 11
640.7319685039372
 21
313.1738807649045
 31
0.0
  0
LINE
  5
4D
  8
0
 10
640.7319685039372
 20
313.1738807649045
 30
0.0
 11
640.7319685039372
 21
341.2117660292464
 31
0.0
  0
LINE
  5
4D
  8
0
 10
640.7319685039372
 20
341.2117660292464
 30
0.0
 11
652.688503937008
 21
341.2117660292464
 31
0.0
  0
LINE
  5
4D
  8
0
 10
652.688503937008
 20
341.2117660292464
 30
0.0
 11
652.688503937008
 21
369.9696512935884
 31
0.0
  0
LINE
  5
4D
  8
0
 10
652.688503937008
 20
369.9696512935884
 30
0.0
 11
640.7319685039372
 21
369.9696512935884
 31
0.0
  0
LINE
  5
4D
  8
0
 10
640.7319685039372
 20
369.9696512935884
 30
0.0
 11
640.7319685039372
 21
398.00753655793034
 31
0.0
  0
LINE
  5
4D
  8
0
 10
640.7319685039372
 20
398.00753655793034
 30
0.0
 11
652.688503937008
 21
398.00753655793034
 31
0.0
  0
LINE
  5
4D
  8
0
 10
652.688503937008
 20
398.00753655793034
 30
0.0
 11
652.688503937008
 21
426.76542182227234
 31
0.0
  0
LINE
  5
4D
  8
0
 10
652.688503937008
 20
426.76542182227234
 30
0.0
 11
640.7319685039372
 21
426.76542182227234
 31
0.0
  0
LINE
  5
4D
  8
0
 10
640.7319685039372
 20
426.76542182227234
 30
0.0
 11
640.7319685039372
 21
454.98330708661433
 31
0.0
  0
LINE
  5
4D
  8
0
 10
1094.9952755905513
 20
227.49165354330714
 30
0.0
 11
1094.9952755905513
 21
199.27376827896515
 31
0.0
  0
LINE
  5
4D
  8
0
 10
1094.9952755905513
 20
199.27376827896515
 30
0.0
 11
1106.9518110236222
 21
199.27376827896515
 31
0.0
  0
LINE
  5
4D
  8
0
 10
1106.9518110236222
 20
199.27376827896515
 30
0.0
 11
1106.9518110236222
 21
170.51588301462317
 31
0.0
  0
LINE
  5
4D
  8
0
 10
1106.9518110236222
 20
170.51588301462317
 30
0.0
 11
1094.9952755905513
 21
170.51588301462317
 31
0.0
  0
LINE
  5
4D
  8
0
 10
1094.9952755905513
 20
170.51588301462317
 30
0.0
 11
1094.9952755905513
 21
142.47799775028122
 31
0.0
  0
LINE
  5
4D
  8
0
 10
1094.9952755905513
 20
142.47799775028122
 30
0.0
 11
1106.9518110236222
 21
142.47799775028122
 31
0.0
  0
LINE
  5
4D
  8
0
 10
1106.9518110236222
 20
142.47799775028122
 30
0.0
 11
1106.9518110236222
 21
113.72011248593927
 31
0.0
  0
LINE
  5
4D
  8
0
 10
1106.9518110236222
 20
113.72011248593927
 30
0.0
 11
1094.9952755905513
 21
113.72011248593927
 31
0.0
  0
LINE
  5
4D
  8
0
 10
1094.9952755905513
 20
113.72011248593927
 30
0.0
 11
1094.9952755905513
 21
85.68222722159732
 31
0.0
  0
LINE
  5
4D
  8
0
 10
1094.9952755905513
 20
85.68222722159732
 30
0.0
 11
1106.9518110236222
 21
85.68222722159732
 31
0.0
  0
LINE
  5
4D
  8
0
 10
1106.9518110236222
 20
85.68222722159732
 30
0.0
 11
1106.9518110236222
 21
56.92434195725535
 31
0.0
  0
LINE
  5
4D
  8
0
 10
1106.9518110236222
 20
56.92434195725535
 30
0.0
 11
1094.9952755905513
 21
56.92434195725535
 31
0.0
  0
LINE
  5
4D
  8
0
 10
1094.9952755905513
 20
56.92434195725535
 30
0.0
 11
1094.9952755905513
 21
28.70645669291339
 31
0.0
  0
LINE
  5
4D
  8
0
 10
1094.9952755905513
 20
28.70645669291339
 30
0.0
 11
1074.0366686856453
 21
28.70645669291339
 31
0.0
  0
LINE
  5
4D
  8
0
 10
1074.0366686856453
 20
28.70645669291339
 30
0.0
 11
1074.0366686856453
 21
40.66299212598426
 31
0.0
  0
LINE
  5
4D
  8
0
 10
1074.0366686856453
 20
40.66299212598426
 30
0.0
 11
1041.661526347668
 21
40.66299212598426
 31
0.0
  0
LINE
  5
4D
  8
0
 10
1041.661526347668
 20
40.66299212598426
 30
0.0
 11
1041.661526347668
 21
28.70645669291339
 31
0.0
  0
LINE
  5
4D
  8
0
 10
1041.661526347668
 20
28.70645669291339
 30
0.0
 11
1008.5663840096912
 21
28.70645669291339
 31
0.0
  0
LINE
  5
4D
  8
0
 10
1008.5663840096912
 20
28.70645669291339
 30
0.0
 11
1008.5663840096912
 21
40.66299212598426
 31
0.0
  0
LINE
  5
4D
  8
0
 10
1008.5663840096912
 20
40.66299212598426
 30
0.0
 11
976.1912416717141
 21
40.66299212598426
 31
0.0
  0
LINE
  5
4D
  8
0
 10
976.1912416717141
 20
40.66299212598426
 30
0.0
 11
976.1912416717141
 21
28.70645669291339
 31
0.0
  0
LINE
  5
4D
  8
0
 10
976.1912416717141
 20
28.70645669291339
 30
0.0
 11
943.0960993337372
 21
28.70645669291339
 31
0.0
  0
LINE
  5
4D
  8
0
 10
943.0960993337372
 20
28.70645669291339
 30
0.0
 11
943.0960993337372
 21
40.66299212598426
 31
0.0
  0
LINE
  5
4D
  8
0
 10
943.0960993337372
 20
40.66299212598426
 30
0.0
 11
910.7209569957602
 21
40.66299212598426
 31
0.0
  0
LINE
  5
4D
  8
0
 10
910.7209569957602
 20
40.66299212598426
 30
0.0
 11
910.7209569957602
 21
28.70645669291339
 31
0.0
  0
LINE
  5
4D
  8
0
 10
910.7209569957602
 20
28.70645669291339
 30
0.0
 11
877.6258146577833
 21
28.70645669291339
 31
0.0
  0
LINE
  5
4D
  8
0
 10
877.6258146577833
 20
28.70645669291339
 30
0.0
 11
877.6258146577833
 21
40.66299212598426
 31
0.0
  0
LINE
  5
4D
  8
0
 10
877.6258146577833
 20
40.66299212598426
 30
0.0
 11
845.2506723198061
 21
40.66299212598426
 31
0.0
  0
LINE
  5
4D
  8
0
 10
845.2506723198061
 20
40.66299212598426
 30
0.0
 11
845.2506723198061
 21
28.70645669291339
 31
0.0
  0
LINE
  5
4D
  8
0
 10
845.2506723198061
 20
28.70645669291339
 30
0.0
 11
812.1555299818293
 21
28.70645669291339
 31
0.0
  0
LINE
  5
4D
  8
0
 10
812.1555299818293
 20
28.70645669291339
 30
0.0
 11
812.1555299818293
 21
40.66299212598426
 31
0.0
  0
LINE
  5
4D
  8
0
 10
812.1555299818293
 20
40.66299212598426
 30
0.0
 11
779.7803876438521
 21
40.66299212598426
 31
0.0
  0
LINE
  5
4D
  8
0
 10
779.7803876438521
 20
40.66299212598426
 30
0.0
 11
779.7803876438521
 21
28.70645669291339
 31
0.0
  0
LINE
  5
4D
  8
0
 10
779.7803876438521
 20
28.70645669291339
 30
0.0
 11
746.6852453058752
 21
28.70645669291339
 31
0.0
  0
LINE
  5
4D
  8
0
 10
746.6852453058752
 20
28.70645669291339
 30
0.0
 11
746.6852453058752
 21
40.66299212598426
 31
0.0
  0
LINE
  5
4D
  8
0
 10
746.6852453058752
 20
40.66299212598426
 30
0.0
 11
714.3101029678984
 21
40.66299212598426
 31
0.0
  0
LINE
  5
4D
  8
0
 10
714.3101029678984
 20
40.66299212598426
 30
0.0
 11
714.3101029678984
 21
28.70645669291339
 31
0.0
  0
LINE
  5
4D
  8
0
 10
714.3101029678984
 20
28.70645669291339
 30
0.0
 11
681.3949606299213
 21
28.70645669291339
 31
0.0
  0
LINE
  5
4D
  8
0
 10
681.3949606299213
 20
28.70645669291339
 30
0.0
 11
681.3949606299213
 21
56.92434195725535
 31
0.0
  0
LINE
  5
4D
  8
0
 10
681.3949606299213
 20
56.92434195725535
 30
0.0
 11
693.3514960629922
 21
56.92434195725535
 31
0.0
  0
LINE
  5
4D
  8
0
 10
693.3514960629922
 20
56.92434195725535
 30
0.0
 11
693.3514960629922
 21
85.68222722159732
 31
0.0
  0
LINE
  5
4D
  8
0
 10
693.3514960629922
 20
85.68222722159732
 30
0.0
 11
681.3949606299213
 21
85.68222722159732
 31
0.0
  0
LINE
  5
4D
  8
0
 10
681.3949606299213
 20
85.68222722159732
 30
0.0
 11
681.3949606299213
 21
113.72011248593927
 31
0.0
  0
LINE
  5
4D
  8
0
 10
681.3949606299213
 20
113.72011248593927
 30
0.0
 11
693.3514960629922
 21
113.72011248593927
 31
0.0
  0
LINE
  5
4D
  8
0
 10
693.3514960629922
 20
113.72011248593927
 30
0.0
 11
693.3514960629922
 21
142.47799775028122
 31
0.0
  0
LINE
  5
4D
  8
0
 10
693.3514960629922
 20
142.47799775028122
 30
0.0
 11
681.3949606299213
 21
142.47799775028122
 31
0.0
  0
LINE
  5
4D
  8
0
 10
681.3949606299213
 20
142.47799775028122
 30
0.0
 11
681.3949606299213
 21
170.51588301462317
 31
0.0
  0
LINE
  5
4D
  8
0
 10
681.3949606299213
 20
170.51588301462317
 30
0.0
 11
693.3514960629922
 21
170.51588301462317
 31
0.0
  0
LINE
  5
4D
  8
0
 10
693.3514960629922
 20
170.51588301462317
 30
0.0
 11
693.3514960629922
 21
199.27376827896515
 31
0.0
  0
LINE
  5
4D
  8
0
 10
693.3514960629922
 20
199.27376827896515
 30
0.0
 11
681.3949606299213
 21
199.27376827896515
 31
0.0
  0
LINE
  5
4D
  8
0
 10
681.3949606299213
 20
199.27376827896515
 30
0.0
 11
681.3949606299213
 21
227.49165354330708
 31
0.0
  0
LINE
  5
4D
  8
0
 10
681.3949606299213
 20
227.49165354330708
 30
0.0
 11
714.3101029678984
 21
227.49165354330708
 31
0.0
  0
LINE
  5
4D
  8
0
 10
714.3101029678984
 20
227.49165354330708
 30
0.0
 11
714.3101029678984
 21
215.5351181102362
 31
0.0
  0
LINE
  5
4D
  8
0
 10
714.3101029678984
 20
215.5351181102362
 30
0.0
 11
746.6852453058752
 21
215.5351181102362
 31
0.0
  0
LINE
  5
4D
  8
0
 10
746.6852453058752
 20
215.5351181102362
 30
0.0
 11
746.6852453058752
 21
227.49165354330708
 31
0.0
  0
LINE
  5
4D
  8
0
 10
746.6852453058752
 20
227.49165354330708
 30
0.0
 11
779.7803876438521
 21
227.49165354330708
 31
0.0
  0
LINE
  5
4D
  8
0
 10
779.7803876438521
 20
227.49165354330708
 30
0.0
 11
779.7803876438521
 21
215.5351181102362
 31
0.0
  0
LINE
  5
4D
  8
0
 10
779.7803876438521
 20
215.5351181102362
 30
0.0
 11
812.1555299818293
 21
215.5351181102362
 31
0.0
  0
LINE
  5
4D
  8
0
 10
812.1555299818293
 20
215.5351181102362
 30
0.0
 11
812.1555299818293
 21
227.49165354330708
 31
0.0
  0
LINE
  5
4D
  8
0
 10
812.1555299818293
 20
227.49165354330708
 30
0.0
 11
845.2506723198061
 21
227.49165354330708
 31
0.0
  0
LINE
  5
4D
  8
0
 10
845.2506723198061
 20
227.49165354330708
 30
0.0
 11
845.2506723198061
 21
215.5351181102362
 31
0.0
  0
LINE
  5
4D
  8
0
 10
845.2506723198061
 20
215.5351181102362
 30
0.0
 11
877.6258146577833
 21
215.5351181102362
 31
0.0
  0
LINE
  5
4D
  8
0
 10
877.6258146577833
 20
215.5351181102362
 30
0.0
 11
877.6258146577833
 21
227.49165354330708
 31
0.0
  0
LINE
  5
4D
  8
0
 10
877.6258146577833
 20
227.49165354330708
 30
0.0
 11
910.7209569957602
 21
227.49165354330708
 31
0.0
  0
LINE
  5
4D
  8
0
 10
910.7209569957602
 20
227.49165354330708
 30
0.0
 11
910.7209569957602
 21
215.5351181102362
 31
0.0
  0
LINE
  5
4D
  8
0
 10
910.7209569957602
 20
215.5351181102362
 30
0.0
 11
943.0960993337372
 21
215.5351181102362
 31
0.0
  0
LINE
  5
4D
  8
0
 10
943.0960993337372
 20
215.5351181102362
 30
0.0
 11
943.0960993337372
 21
227.49165354330708
 31
0.0
  0
LINE
  5
4D
  8
0
 10
943.0960993337372
 20
227.49165354330708
 30
0.0
 11
976.1912416717141
 21
227.49165354330708
 31
0.0
  0
LINE
  5
4D
  8
0
 10
976.1912416717141
 20
227.49165354330708
 30
0.0
 11
976.1912416717141
 21
215.5351181102362
 31
0.0
  0
LINE
  5
4D
  8
0
 10
976.1912416717141
 20
215.5351181102362
 30
0.0
 11
1008.5663840096912
 21
215.5351181102362
 31
0.0
  0
LINE
  5
4D
  8
0
 10
1008.5663840096912
 20
215.5351181102362
 30
0.0
 11
1008.5663840096912
 21
227.49165354330708
 31
0.0
  0
LINE
  5
4D
  8
0
 10
1008.5663840096912
 20
227.49165354330708
 30
0.0
 11
1041.661526347668
 21
227.49165354330708
 31
0.0
  0
LINE
  5
4D
  8
0
 10
1041.661526347668
 20
227.49165354330708
 30
0.0
 11
1041.661526347668
 21
215.5351181102362
 31
0.0
  0
LINE
  5
4D
  8
0
 10
1041.661526347668
 20
215.5351181102362
 30
0.0
 11
1074.0366686856453
 21
215.5351181102362
 31
0.0
  0
LINE
  5
4D
  8
0
 10
1074.0366686856453
 20
215.5351181102362
 30
0.0
 11
1074.0366686856453
 21
227.49165354330708
 31
0.0
  0
LINE
  5
4D
  8
0
 10
1074.0366686856453
 20
227.49165354330708
 30
0.0
 11
1094.9952755905513
 21
227.49165354330708
 31
0.0
  0
ENDSEC
  0
EOF
